<?xml version="1.0" encoding="UTF-8" standalone="no"?><!DOCTYPE svg PUBLIC "-//W3C//DTD SVG 1.1//EN" "http://www.w3.org/Graphics/SVG/1.1/DTD/svg11.dtd"><svg width="100%" height="100%" viewBox="0 0 376 343" version="1.1" xmlns="http://www.w3.org/2000/svg" xmlns:xlink="http://www.w3.org/1999/xlink" xml:space="preserve" xmlns:serif="http://www.serif.com/" style="fill-rule:evenodd;clip-rule:evenodd;stroke-linejoin:round;stroke-miterlimit:2;"><g><path d="M36.451,275.364l-0.93,-3.631c1.975,-0.59 3.711,-0.599 5.206,-0.034c1.495,0.569 2.76,1.682 3.796,3.343c1.283,2.054 1.636,4.177 1.058,6.378c-0.578,2.2 -2.081,4.059 -4.514,5.58c-2.573,1.605 -4.985,2.191 -7.241,1.75c-2.254,-0.438 -4.059,-1.742 -5.414,-3.908c-1.181,-1.889 -1.584,-3.775 -1.202,-5.656c0.221,-1.117 0.841,-2.238 1.86,-3.363l2.667,2.633c-0.684,0.683 -1.079,1.456 -1.181,2.327c-0.101,0.87 0.107,1.72 0.625,2.552c0.717,1.146 1.707,1.817 2.977,2.017c1.269,0.199 2.823,-0.276 4.667,-1.427c1.953,-1.223 3.125,-2.442 3.516,-3.665c0.39,-1.222 0.238,-2.395 -0.467,-3.52c-0.518,-0.828 -1.227,-1.38 -2.128,-1.648c-0.904,-0.267 -2,-0.178 -3.295,0.272Zm-9.415,15.721l-1.499,-2.395l0.862,-2.119l-2.335,-0.242l-1.491,-2.383l4.476,0.238l1.716,2.743l-1.729,4.158Z" style="fill:#1d1d1b;fill-rule:nonzero;"/><path d="M33.366,254.284l-17.02,6.532l-4.845,-12.622l2.878,-1.103l3.525,9.184l3.775,-1.448l-3.282,-8.548l2.871,-1.1l3.278,8.544l4.633,-1.775l-3.652,-9.508l2.871,-1.104l4.968,12.948Z" style="fill:#1d1d1b;fill-rule:nonzero;"/><path d="M18.484,227.853l-0.968,-3.466c1.146,-0.42 1.941,-1.006 2.382,-1.754c0.442,-0.747 0.565,-1.672 0.37,-2.772c-0.204,-1.168 -0.608,-2.005 -1.206,-2.51c-0.599,-0.506 -1.227,-0.701 -1.89,-0.582c-0.424,0.076 -0.764,0.264 -1.019,0.565c-0.255,0.301 -0.438,0.781 -0.548,1.44c-0.072,0.449 -0.161,1.465 -0.271,3.04c-0.141,2.03 -0.489,3.499 -1.054,4.408c-0.794,1.274 -1.903,2.038 -3.321,2.289c-0.917,0.162 -1.817,0.051 -2.705,-0.327c-0.887,-0.378 -1.627,-1.015 -2.212,-1.92c-0.59,-0.9 -1.007,-2.043 -1.249,-3.423c-0.399,-2.254 -0.204,-4.038 0.586,-5.35c0.786,-1.312 2,-2.145 3.64,-2.493l0.798,3.597c-0.896,0.319 -1.503,0.769 -1.818,1.35c-0.314,0.582 -0.378,1.385 -0.199,2.404c0.186,1.053 0.548,1.839 1.087,2.362c0.344,0.331 0.747,0.458 1.215,0.378c0.424,-0.078 0.755,-0.319 0.993,-0.731c0.306,-0.526 0.51,-1.708 0.616,-3.546c0.102,-1.835 0.306,-3.215 0.599,-4.14c0.297,-0.922 0.79,-1.691 1.478,-2.306c0.688,-0.612 1.596,-1.02 2.734,-1.219c1.028,-0.182 2.043,-0.068 3.041,0.348c0.998,0.412 1.809,1.099 2.429,2.068c0.62,0.969 1.07,2.234 1.346,3.792c0.399,2.273 0.183,4.107 -0.654,5.508c-0.832,1.401 -2.233,2.399 -4.2,2.99Z" style="fill:#1d1d1b;fill-rule:nonzero;"/><path d="M20.003,196.016l-18.231,0.319l-0.064,-3.682l8.099,-0.141l-8.226,-7.295l-0.089,-4.947l7.223,6.738l11.003,-7.43l0.081,4.76l-8.468,5.164l3.1,2.93l5.508,-0.097l0.064,3.681Z" style="fill:#1d1d1b;fill-rule:nonzero;"/><path d="M22.337,160.056l-7.534,-1.461l-11.64,4.539l0.824,-4.237l7.899,-2.833l-6.277,-5.508l0.807,-4.161l9.113,8.599l7.509,1.46l-0.701,3.602Zm-19.017,-3.202l-3.32,-2.395l0.747,-3.848l2.998,4.068l-0.425,2.175Z" style="fill:#1d1d1b;fill-rule:nonzero;"/><path d="M24.757,126.036l1.198,-3.393c1.185,0.31 2.17,0.289 2.96,-0.072c0.79,-0.357 1.418,-1.045 1.894,-2.06c0.501,-1.074 0.65,-1.991 0.45,-2.747c-0.2,-0.756 -0.608,-1.278 -1.215,-1.563c-0.39,-0.178 -0.776,-0.221 -1.159,-0.119c-0.382,0.102 -0.807,0.391 -1.274,0.866c-0.318,0.328 -0.973,1.109 -1.97,2.336c-1.274,1.584 -2.409,2.582 -3.389,3.002c-1.385,0.591 -2.727,0.582 -4.035,-0.029c-0.84,-0.391 -1.52,-0.999 -2.029,-1.818c-0.51,-0.815 -0.748,-1.766 -0.714,-2.841c0.038,-1.078 0.353,-2.251 0.943,-3.52c0.968,-2.077 2.153,-3.423 3.55,-4.051c1.397,-0.624 2.867,-0.608 4.412,0.046l-1.41,3.406c-0.917,-0.25 -1.669,-0.229 -2.263,0.068c-0.59,0.293 -1.104,0.913 -1.541,1.851c-0.455,0.969 -0.608,1.822 -0.463,2.557c0.089,0.471 0.348,0.806 0.777,1.006c0.39,0.183 0.802,0.174 1.235,-0.025c0.548,-0.26 1.393,-1.109 2.536,-2.552c1.138,-1.444 2.093,-2.463 2.866,-3.05c0.773,-0.586 1.618,-0.934 2.531,-1.04c0.918,-0.11 1.898,0.081 2.943,0.565c0.947,0.441 1.711,1.121 2.293,2.03c0.578,0.912 0.845,1.945 0.799,3.092c-0.043,1.15 -0.404,2.445 -1.071,3.881c-0.976,2.089 -2.208,3.465 -3.694,4.136c-1.491,0.671 -3.206,0.684 -5.16,0.038Z" style="fill:#1d1d1b;fill-rule:nonzero;"/><path d="M46.421,96.913l-18.842,-4.463l2.174,-3.351l13.832,3.483l-8.884,-11.097l2.128,-3.274l11.733,15.407l-2.141,3.295Z" style="fill:#1d1d1b;fill-rule:nonzero;"/><path d="M71.674,66.278l-2.781,2.88l-4.085,-1.733l-5.066,5.245l1.936,3.958l-2.714,2.811l-8.183,-17.777l2.705,-2.798l18.188,7.414Zm-9.898,-0.135l-6.612,-2.893l3.155,6.472l3.457,-3.579Z" style="fill:#1d1d1b;fill-rule:nonzero;"/><path d="M81.618,57.356l-2.047,-2.616l0.268,-15.215l-6.692,5.231l-1.903,-2.429l10.519,-8.217l1.758,2.255l-0.297,15.84l8.174,-6.387l1.89,2.42l-11.67,9.118Z" style="fill:#1d1d1b;fill-rule:nonzero;"/><path d="M117.528,34.972l-6.158,-13.835l-4.943,2.2l-1.253,-2.816l13.233,-5.894l1.257,2.816l-4.93,2.195l6.157,13.84l-3.363,1.494Z" style="fill:#1d1d1b;fill-rule:nonzero;"/><path d="M154.353,22.47l-3.869,1.036l-2.612,-3.588l-7.04,1.885l-0.383,4.391l-3.771,1.011l2.14,-19.449l3.763,-1.011l11.772,15.725Zm-8.417,-5.214l-4.179,-5.887l-0.628,7.173l4.807,-1.286Z" style="fill:#1d1d1b;fill-rule:nonzero;"/><path d="M169.155,20.194l-1.27,-18.188l3.571,-0.25l8.294,11.626l-0.849,-12.145l3.41,-0.237l1.273,18.183l-3.686,0.259l-8.161,-11.347l0.828,11.861l-3.41,0.238Z" style="fill:#1d1d1b;fill-rule:nonzero;"/><path d="M200.463,19.531l2.222,-18.094l13.419,1.648l-0.378,3.061l-9.763,-1.201l-0.493,4.013l9.088,1.116l-0.378,3.05l-9.083,-1.118l-0.604,4.927l10.108,1.24l-0.374,3.049l-13.764,-1.691Z" style="fill:#1d1d1b;fill-rule:nonzero;"/><path d="M243.114,20.916l3.156,2.017c-1.045,1.78 -2.306,2.972 -3.784,3.575c-1.482,0.608 -3.168,0.655 -5.058,0.149c-2.335,-0.628 -4.047,-1.941 -5.121,-3.944c-1.079,-2.001 -1.248,-4.388 -0.505,-7.157c0.785,-2.934 2.152,-5.006 4.101,-6.22c1.95,-1.219 4.158,-1.495 6.62,-0.837c2.159,0.577 3.738,1.686 4.741,3.317c0.598,0.968 0.913,2.212 0.933,3.728l-3.745,-0.102c0.038,-0.968 -0.204,-1.805 -0.726,-2.514c-0.518,-0.705 -1.248,-1.185 -2.196,-1.435c-1.303,-0.353 -2.488,-0.166 -3.553,0.552c-1.063,0.722 -1.878,2.127 -2.439,4.229c-0.599,2.226 -0.619,3.92 -0.072,5.079c0.544,1.159 1.461,1.911 2.744,2.255c0.942,0.251 1.838,0.17 2.679,-0.25c0.841,-0.416 1.584,-1.232 2.225,-2.442Zm-3.839,-17.921l2.727,0.73l0.815,2.141l1.877,-1.419l2.713,0.727l-3.435,2.879l-3.125,-0.837l-1.572,-4.221Z" style="fill:#1d1d1b;fill-rule:nonzero;"/><path d="M259.577,34.943l8.277,-16.244l3.189,1.627l1.121,14.234l5.529,-10.85l3.044,1.554l-8.276,16.243l-3.291,-1.676l-1.15,-13.929l-5.398,10.595l-3.045,-1.554Z" style="fill:#1d1d1b;fill-rule:nonzero;"/><path d="M286.342,50.625l10.455,-14.935l3.015,2.115l-10.456,14.93l-3.014,-2.11Zm10.71,-16.031l3.541,-2.064l3.207,2.247l-4.935,1.087l-1.813,-1.27Z" style="fill:#1d1d1b;fill-rule:nonzero;"/><path d="M301.98,63.386l12.438,-13.338l2.692,2.514l-4.896,5.248l5.279,4.918l4.892,-5.249l2.692,2.51l-12.433,13.338l-2.693,-2.513l5.436,-5.831l-5.275,-4.917l-5.439,5.83l-2.693,-2.51Z" style="fill:#1d1d1b;fill-rule:nonzero;"/><path d="M329.972,80.645c1.504,-1.092 2.925,-1.784 4.272,-2.073c0.993,-0.212 2.004,-0.242 3.02,-0.098c1.018,0.149 1.924,0.464 2.717,0.943c1.053,0.637 2.022,1.554 2.892,2.756c1.58,2.174 2.17,4.404 1.767,6.688c-0.4,2.286 -1.801,4.298 -4.2,6.043c-2.382,1.729 -4.718,2.438 -7.002,2.12c-2.286,-0.319 -4.218,-1.559 -5.79,-3.728c-1.595,-2.192 -2.195,-4.421 -1.795,-6.689c0.399,-2.268 1.771,-4.255 4.119,-5.962Zm2.332,2.998c-1.674,1.214 -2.659,2.518 -2.96,3.915c-0.302,1.401 -0.022,2.693 0.841,3.882c0.862,1.184 2,1.847 3.409,1.987c1.406,0.14 2.969,-0.408 4.676,-1.652c1.69,-1.227 2.683,-2.514 2.977,-3.86c0.293,-1.346 -0.005,-2.633 -0.896,-3.86c-0.892,-1.228 -2.035,-1.912 -3.423,-2.051c-1.384,-0.141 -2.93,0.407 -4.624,1.639Z" style="fill:#1d1d1b;fill-rule:nonzero;"/><path d="M348.81,118.838l1.665,3.19c-1.037,0.649 -1.691,1.388 -1.967,2.208c-0.276,0.823 -0.203,1.753 0.217,2.793c0.445,1.101 1.01,1.835 1.703,2.205c0.687,0.369 1.345,0.429 1.97,0.174c0.4,-0.161 0.692,-0.416 0.879,-0.764c0.183,-0.349 0.263,-0.854 0.234,-1.525c-0.022,-0.455 -0.145,-1.465 -0.365,-3.032c-0.285,-2.013 -0.247,-3.52 0.114,-4.527c0.514,-1.414 1.435,-2.391 2.773,-2.93c0.863,-0.349 1.767,-0.433 2.714,-0.247c0.946,0.187 1.805,0.659 2.565,1.419c0.764,0.76 1.41,1.792 1.936,3.092c0.854,2.123 1.036,3.906 0.539,5.355c-0.496,1.447 -1.512,2.513 -3.044,3.197l-1.529,-3.355c0.811,-0.497 1.307,-1.061 1.495,-1.698c0.187,-0.633 0.085,-1.431 -0.302,-2.391c-0.403,-0.994 -0.922,-1.686 -1.553,-2.085c-0.409,-0.255 -0.83,-0.293 -1.271,-0.119c-0.398,0.161 -0.671,0.471 -0.819,0.921c-0.187,0.578 -0.145,1.775 0.135,3.597c0.281,1.817 0.371,3.211 0.273,4.179c-0.099,0.964 -0.417,1.817 -0.965,2.561c-0.543,0.743 -1.35,1.333 -2.42,1.762c-0.969,0.391 -1.983,0.488 -3.05,0.293c-1.061,-0.195 -2,-0.705 -2.806,-1.52c-0.812,-0.82 -1.512,-1.962 -2.103,-3.432c-0.865,-2.14 -1.036,-3.979 -0.509,-5.524c0.527,-1.546 1.69,-2.812 3.491,-3.797Z" style="fill:#1d1d1b;fill-rule:nonzero;"/><path d="M352.88,150.305l17.904,-3.478l1.125,5.801c0.43,2.196 0.616,3.648 0.57,4.349c-0.073,1.078 -0.489,2.051 -1.253,2.917c-0.765,0.866 -1.861,1.44 -3.284,1.716c-1.099,0.216 -2.063,0.195 -2.891,-0.06c-0.823,-0.25 -1.512,-0.645 -2.06,-1.176c-0.543,-0.531 -0.951,-1.1 -1.21,-1.707c-0.34,-0.832 -0.667,-2.064 -0.985,-3.703l-0.459,-2.357l-6.752,1.317l-0.705,-3.619Zm15.577,0.727l-5.079,0.985l0.382,1.979c0.28,1.427 0.556,2.361 0.837,2.803c0.28,0.445 0.649,0.764 1.099,0.959c0.455,0.196 0.944,0.243 1.474,0.136c0.649,-0.123 1.151,-0.42 1.499,-0.883c0.349,-0.467 0.519,-1.002 0.51,-1.609c-0,-0.447 -0.127,-1.321 -0.382,-2.625l-0.34,-1.745Z" style="fill:#1d1d1b;fill-rule:nonzero;"/><path d="M366.234,179.565c1.861,0.029 3.414,0.335 4.662,0.913c0.922,0.428 1.747,1.01 2.472,1.741c0.723,0.73 1.257,1.525 1.602,2.386c0.458,1.143 0.675,2.455 0.649,3.942c-0.047,2.683 -0.917,4.819 -2.612,6.403c-1.694,1.584 -4.026,2.349 -6.993,2.298c-2.944,-0.051 -5.233,-0.892 -6.864,-2.523c-1.634,-1.627 -2.428,-3.779 -2.381,-6.459c0.046,-2.71 0.913,-4.849 2.594,-6.421c1.682,-1.571 3.971,-2.331 6.871,-2.28Zm0.059,3.792c-2.064,-0.034 -3.635,0.416 -4.718,1.351c-1.082,0.933 -1.635,2.135 -1.66,3.6c-0.025,1.47 0.481,2.68 1.521,3.64c1.04,0.96 2.62,1.461 4.73,1.495c2.09,0.038 3.657,-0.395 4.701,-1.291c1.045,-0.9 1.58,-2.107 1.606,-3.623c0.025,-1.516 -0.472,-2.752 -1.495,-3.694c-1.024,-0.948 -2.586,-1.44 -4.685,-1.478Z" style="fill:#1d1d1b;fill-rule:nonzero;"/><path d="M355.306,212.753l17.955,3.163l-1.347,7.631c-0.335,1.919 -0.743,3.287 -1.219,4.098c-0.475,0.811 -1.172,1.409 -2.089,1.783c-0.918,0.378 -1.907,0.476 -2.968,0.285c-1.346,-0.234 -2.391,-0.828 -3.13,-1.775c-0.739,-0.947 -1.083,-2.229 -1.032,-3.844c-0.594,0.702 -1.21,1.262 -1.851,1.674c-0.638,0.416 -1.729,0.93 -3.279,1.55l-3.89,1.575l0.765,-4.336l4.369,-1.931c1.563,-0.684 2.553,-1.168 2.977,-1.445c0.425,-0.28 0.739,-0.598 0.939,-0.959c0.204,-0.361 0.378,-0.956 0.526,-1.788l0.128,-0.735l-7.496,-1.324l0.642,-3.622Zm9.72,5.452l-0.471,2.679c-0.306,1.742 -0.425,2.841 -0.353,3.3c0.069,0.458 0.264,0.84 0.578,1.151c0.319,0.305 0.742,0.509 1.283,0.603c0.602,0.106 1.121,0.029 1.549,-0.225c0.429,-0.259 0.743,-0.671 0.943,-1.241c0.093,-0.288 0.272,-1.168 0.531,-2.636l0.497,-2.828l-4.557,-0.803Z" style="fill:#1d1d1b;fill-rule:nonzero;"/><path d="M346.373,247.051l14.142,5.428l1.94,-5.05l2.88,1.105l-5.193,13.525l-2.88,-1.108l1.936,-5.036l-14.141,-5.428l1.316,-3.436Z" style="fill:#1d1d1b;fill-rule:nonzero;"/><path d="M351.773,278.944l-1.949,3.126l-8.374,-5.236c-1.33,-0.829 -2.217,-1.33 -2.659,-1.499c-0.717,-0.259 -1.422,-0.259 -2.118,0.004c-0.701,0.263 -1.321,0.832 -1.865,1.703c-0.556,0.887 -0.789,1.669 -0.709,2.343c0.081,0.676 0.356,1.224 0.828,1.644c0.468,0.425 1.316,1.015 2.54,1.779l8.553,5.347l-1.95,3.121l-8.124,-5.074c-1.856,-1.16 -3.113,-2.065 -3.775,-2.714c-0.662,-0.646 -1.112,-1.363 -1.358,-2.145c-0.243,-0.781 -0.286,-1.652 -0.125,-2.607c0.163,-0.955 0.625,-2.043 1.389,-3.266c0.926,-1.477 1.797,-2.493 2.612,-3.041c0.82,-0.551 1.639,-0.879 2.459,-0.98c0.824,-0.102 1.576,-0.034 2.263,0.195c1.011,0.353 2.383,1.066 4.115,2.149l8.247,5.151Z" style="fill:#1d1d1b;fill-rule:nonzero;"/><path d="M182.243,169.345c0.395,-29.668 12.262,-32.833 -5.538,-44.502c39.16,-1.384 20.372,23.338 21.756,44.502c9.889,78.32 79.705,127.171 79.705,127.171c-43.113,-24.722 -94.341,-81.486 -95.923,-127.171Zm-27.887,122.422c-20.57,-49.245 7.911,-71.396 9.889,-106.404c10.087,32.041 -13.647,49.248 22.744,100.474c-10.877,0.989 -20.766,1.777 -32.633,5.93Zm-34.019,15.034c-13.497,-53.812 22.596,-84.974 28.958,-91.919c0.563,-0.924 0.907,-1.434 0.907,-1.434c0.161,0.162 -0.184,0.643 -0.907,1.434c-4.467,7.319 -23.577,42.21 -9.177,82.426c-7.123,2.175 -11.672,4.153 -19.781,9.493Zm-22.152,-190.858c-0,-0 45.293,-0 76.739,67.641c-47.068,-60.916 -66.849,-35.799 -76.739,-67.641Zm9.89,-49.843c6.131,-3.557 16.614,2.574 23.14,14.045c6.724,11.274 6.922,23.535 0.992,27.093c-6.332,3.562 -16.613,-2.766 -23.341,-14.04c-6.724,-11.273 -6.923,-23.535 -0.791,-27.098Zm169.695,14.836c-21.361,50.237 -82.87,26.107 -128.161,44.303c31.051,-38.369 90.583,-14.636 128.161,-44.303Zm-64.674,73.377c1.388,-12.263 4.351,-23.932 9.497,-28.876c0.194,0.393 29.268,-6.329 29.861,-6.329c-38.023,53.563 16.26,122.185 56.702,168.218c22.493,-26.909 36.037,-61.556 36.037,-99.369c-0,-73.45 -51.075,-134.966 -119.645,-150.98c4.183,5.493 5.303,15.813 2.183,26.357c-4.153,14.24 -14.239,23.734 -22.348,21.358c-8.109,-2.372 -11.468,-15.82 -7.315,-29.863c2.815,-9.656 8.358,-17.213 14.163,-20.344c-7.213,-1.028 -14.584,-1.572 -22.082,-1.572c-85.628,-0 -155.043,69.415 -155.043,155.044c-0,48.932 22.675,92.562 58.084,120.977c-1.119,-35.554 26.116,-60.268 27.484,-61.784c-1.214,1.629 -23.612,32.375 -14.181,68.749l0.951,3.213c23.937,15.126 52.297,23.888 82.705,23.888c39.073,-0 74.764,-14.458 102.03,-38.31c-34.884,-34.49 -85.558,-94.462 -79.083,-150.377Z" style="fill:#004c9c;fill-rule:nonzero;"/></g></svg>