<?xml version="1.0" encoding="UTF-8" standalone="no"?><!DOCTYPE svg PUBLIC "-//W3C//DTD SVG 1.1//EN" "http://www.w3.org/Graphics/SVG/1.1/DTD/svg11.dtd"><svg width="100%" height="100%" viewBox="0 0 376 357" version="1.1" xmlns="http://www.w3.org/2000/svg" xmlns:xlink="http://www.w3.org/1999/xlink" xml:space="preserve" xmlns:serif="http://www.serif.com/" style="fill-rule:evenodd;clip-rule:evenodd;stroke-linejoin:round;stroke-miterlimit:2;"><g><path d="M82.371,114.948c9.936,31.995 29.813,6.756 77.106,67.964c-31.597,-67.964 -77.106,-67.964 -77.106,-67.964Z" style="fill:#feffff;"/><path d="M262.814,79.774c-37.757,29.808 -97.574,5.962 -128.774,44.514c45.509,-18.283 107.311,5.962 128.774,-44.514Z" style="fill:#feffff;"/><path d="M183.126,168.605c-1.391,-21.264 17.487,-46.105 -21.86,-44.714c17.885,11.725 5.962,14.905 5.564,44.714c1.59,45.905 53.062,102.94 96.383,127.781c0,0 -70.152,-49.086 -80.087,-127.781Z" style="fill:#feffff;"/><path d="M237.378,118.128c-0.596,0 -29.809,6.755 -30.005,6.359c-5.17,4.968 -8.148,16.693 -9.542,29.014c-6.558,56.637 46.104,115.659 76.907,147.257c4.505,1.154 41.137,10.73 41.137,10.73c0,-0 -124.204,-128.973 -78.497,-193.36Z" style="fill:#feffff;"/><path d="M90.718,315.86c-3.177,2.385 -4.174,1.989 -10.93,9.142c-12.322,-45.31 25.436,-78.1 25.238,-78.299c0,0 -24.046,31.598 -14.308,69.157Z" style="fill:#feffff;"/><path d="M124.504,297.181c-7.157,2.185 -11.727,4.172 -19.876,9.539c-15.103,-60.215 31.598,-92.21 30.008,-93.8c0,-0 -26.427,38.752 -10.132,84.261Z" style="fill:#feffff;"/><path d="M171.6,285.654c-10.93,0.994 -20.867,1.786 -32.79,5.959c-20.668,-49.48 7.948,-71.738 9.936,-106.913c10.136,32.194 -13.712,49.483 22.854,100.954Z" style="fill:#feffff;"/><path d="M92.307,64.867c6.16,-3.574 16.694,2.586 23.251,14.112c6.757,11.327 6.956,23.648 0.998,27.223c-6.363,3.579 -16.694,-2.78 -23.454,-14.107c-6.756,-11.327 -6.956,-23.648 -0.795,-27.228Z" style="fill:#feffff;"/><path d="M205.183,31.881c8.149,2.384 11.527,16.096 7.354,30.206c-4.174,14.308 -14.308,23.848 -22.456,21.46c-8.148,-2.383 -11.523,-15.896 -7.349,-30.005c4.17,-14.308 14.304,-24.046 22.451,-21.661Z" style="fill:#feffff;"/><path d="M36.139,346.064l2.307,0.583c-0.483,1.89 -1.354,3.332 -2.607,4.33c-1.256,0.993 -2.788,1.488 -4.605,1.488c-1.876,0 -3.401,-0.381 -4.576,-1.144c-1.176,-0.765 -2.071,-1.872 -2.683,-3.319c-0.613,-1.451 -0.92,-3.008 -0.92,-4.67c0,-1.812 0.344,-3.393 1.037,-4.743c0.693,-1.35 1.678,-2.375 2.959,-3.076c1.277,-0.702 2.684,-1.05 4.22,-1.05c1.743,-0 3.206,0.441 4.394,1.33c1.187,0.888 2.015,2.132 2.481,3.741l-2.266,0.535c-0.405,-1.268 -0.989,-2.189 -1.759,-2.768c-0.767,-0.58 -1.731,-0.868 -2.898,-0.868c-1.338,0 -2.453,0.32 -3.353,0.96c-0.9,0.645 -1.532,1.504 -1.893,2.586c-0.365,1.079 -0.547,2.194 -0.547,3.341c0,1.484 0.215,2.773 0.644,3.879c0.434,1.103 1.103,1.93 2.015,2.477c0.912,0.547 1.897,0.819 2.959,0.819c1.289,-0 2.379,-0.373 3.275,-1.115c0.896,-0.746 1.5,-1.853 1.816,-3.316Z" style="fill:#feffff;fill-rule:nonzero;"/><path d="M39.881,352.169l0,-1.735l8.03,-9.214c-0.913,0.048 -1.715,0.069 -2.412,0.069l-5.144,-0l-0,-1.73l10.308,0l-0,1.41l-6.826,8.006l-1.318,1.459c0.957,-0.069 1.857,-0.106 2.696,-0.106l5.829,0l-0,1.841l-11.163,0Z" style="fill:#feffff;fill-rule:nonzero;"/><path d="M61.802,348.107l2.209,0.272c-0.348,1.293 -0.993,2.294 -1.933,3.008c-0.945,0.709 -2.148,1.065 -3.612,1.065c-1.844,0 -3.307,-0.567 -4.386,-1.702c-1.082,-1.135 -1.621,-2.728 -1.621,-4.779c-0,-2.124 0.547,-3.77 1.638,-4.942c1.094,-1.171 2.508,-1.759 4.252,-1.759c1.686,0 3.064,0.576 4.13,1.723c1.07,1.148 1.605,2.765 1.605,4.844c-0,0.13 -0.004,0.32 -0.012,0.572l-9.404,0c0.077,1.386 0.47,2.448 1.176,3.182c0.705,0.737 1.58,1.106 2.634,1.106c0.783,0 1.452,-0.207 2.007,-0.62c0.555,-0.409 0.993,-1.066 1.317,-1.97Zm-7.016,-3.458l7.041,0c-0.094,-1.057 -0.365,-1.856 -0.807,-2.383c-0.681,-0.823 -1.565,-1.237 -2.647,-1.237c-0.981,0 -1.808,0.328 -2.477,0.986c-0.669,0.656 -1.038,1.536 -1.11,2.634Z" style="fill:#feffff;fill-rule:nonzero;"/><path d="M74.927,347.548l2.1,0.275c-0.227,1.447 -0.815,2.582 -1.763,3.402c-0.945,0.818 -2.108,1.227 -3.486,1.227c-1.723,0 -3.113,-0.562 -4.159,-1.689c-1.05,-1.128 -1.577,-2.746 -1.577,-4.853c-0,-1.362 0.227,-2.554 0.677,-3.575c0.454,-1.022 1.139,-1.787 2.063,-2.299c0.921,-0.51 1.926,-0.766 3.008,-0.766c1.37,0 2.493,0.349 3.36,1.042c0.872,0.693 1.431,1.674 1.679,2.951l-2.08,0.32c-0.198,-0.847 -0.547,-1.483 -1.05,-1.913c-0.502,-0.426 -1.111,-0.641 -1.824,-0.641c-1.078,0 -1.954,0.386 -2.627,1.16c-0.672,0.77 -1.009,1.991 -1.009,3.661c-0,1.694 0.324,2.926 0.977,3.696c0.649,0.766 1.496,1.151 2.542,1.151c0.839,0 1.536,-0.26 2.099,-0.774c0.564,-0.515 0.92,-1.305 1.07,-2.375Z" style="fill:#feffff;fill-rule:nonzero;"/><path d="M78.86,352.169l0,-17.41l2.136,0l0,6.246c0.997,-1.154 2.257,-1.735 3.778,-1.735c0.932,0 1.743,0.187 2.432,0.556c0.689,0.364 1.184,0.875 1.479,1.524c0.296,0.648 0.446,1.593 0.446,2.825l-0,7.994l-2.14,0l-0,-7.994c-0,-1.066 -0.231,-1.844 -0.693,-2.33c-0.462,-0.488 -1.119,-0.735 -1.966,-0.735c-0.632,-0 -1.228,0.167 -1.788,0.495c-0.559,0.329 -0.957,0.775 -1.192,1.338c-0.239,0.559 -0.356,1.337 -0.356,2.326l0,6.9l-2.136,0Z" style="fill:#feffff;fill-rule:nonzero;"/><path d="M99.415,352.169l0,-17.41l5.996,0c1.354,0 2.387,0.085 3.101,0.252c0.997,0.226 1.848,0.643 2.553,1.244c0.916,0.778 1.605,1.767 2.06,2.975c0.457,1.207 0.684,2.586 0.684,4.138c-0,1.322 -0.153,2.493 -0.465,3.515c-0.308,1.021 -0.702,1.869 -1.188,2.537c-0.483,0.669 -1.01,1.196 -1.585,1.577c-0.572,0.386 -1.265,0.678 -2.076,0.876c-0.814,0.198 -1.747,0.296 -2.796,0.296l-6.284,0Zm2.303,-2.056l3.717,-0c1.147,-0 2.051,-0.105 2.704,-0.32c0.652,-0.215 1.171,-0.515 1.561,-0.903c0.546,-0.543 0.972,-1.282 1.276,-2.202c0.304,-0.923 0.458,-2.039 0.458,-3.356c-0,-1.82 -0.3,-3.219 -0.896,-4.195c-0.6,-0.982 -1.325,-1.634 -2.181,-1.966c-0.615,-0.239 -1.612,-0.357 -2.979,-0.357l-3.66,-0l0,13.299Z" style="fill:#feffff;fill-rule:nonzero;"/><path d="M124.936,350.612c-0.794,0.673 -1.556,1.148 -2.286,1.427c-0.734,0.275 -1.52,0.413 -2.359,0.413c-1.386,0 -2.448,-0.336 -3.194,-1.013c-0.742,-0.676 -1.115,-1.545 -1.115,-2.594c0,-0.62 0.138,-1.184 0.422,-1.695c0.279,-0.51 0.649,-0.92 1.102,-1.228c0.459,-0.308 0.969,-0.543 1.541,-0.7c0.417,-0.111 1.05,-0.22 1.897,-0.322c1.726,-0.206 3,-0.449 3.814,-0.737c0.008,-0.292 0.012,-0.479 0.012,-0.556c-0,-0.871 -0.203,-1.487 -0.608,-1.84c-0.543,-0.486 -1.358,-0.725 -2.432,-0.725c-1.005,-0 -1.747,0.174 -2.23,0.527c-0.478,0.353 -0.83,0.977 -1.061,1.872l-2.088,-0.288c0.191,-0.891 0.503,-1.617 0.936,-2.164c0.434,-0.552 1.066,-0.977 1.889,-1.272c0.823,-0.296 1.776,-0.447 2.862,-0.447c1.079,0 1.95,0.13 2.623,0.381c0.672,0.256 1.167,0.572 1.487,0.957c0.317,0.385 0.535,0.868 0.665,1.455c0.069,0.365 0.106,1.022 0.106,1.97l-0,2.85c-0,1.99 0.044,3.247 0.138,3.77c0.089,0.527 0.271,1.033 0.539,1.516l-2.234,0c-0.219,-0.443 -0.365,-0.961 -0.426,-1.557Zm-0.178,-4.775c-0.778,0.32 -1.942,0.588 -3.49,0.81c-0.879,0.126 -1.504,0.268 -1.865,0.426c-0.365,0.158 -0.648,0.39 -0.843,0.697c-0.198,0.304 -0.3,0.641 -0.3,1.014c0,0.571 0.219,1.046 0.649,1.427c0.429,0.377 1.062,0.567 1.893,0.567c0.823,-0 1.556,-0.178 2.197,-0.539c0.641,-0.36 1.115,-0.855 1.414,-1.479c0.231,-0.483 0.345,-1.197 0.345,-2.136l0,-0.787Z" style="fill:#feffff;fill-rule:nonzero;"/><path d="M130.233,352.169l0,-12.61l1.923,0l0,1.791c0.928,-1.386 2.266,-2.08 4.013,-2.08c0.762,0 1.459,0.138 2.096,0.41c0.64,0.275 1.114,0.632 1.43,1.078c0.321,0.442 0.539,0.968 0.669,1.577c0.077,0.397 0.118,1.091 0.118,2.079l-0,7.755l-2.14,0l-0,-7.674c-0,-0.867 -0.081,-1.519 -0.248,-1.953c-0.166,-0.43 -0.462,-0.775 -0.883,-1.03c-0.426,-0.259 -0.921,-0.389 -1.492,-0.389c-0.912,0 -1.695,0.292 -2.359,0.867c-0.661,0.58 -0.99,1.674 -0.99,3.292l-0,6.887l-2.137,0Z" style="fill:#feffff;fill-rule:nonzero;"/><path d="M151.99,347.548l2.1,0.275c-0.228,1.447 -0.815,2.582 -1.764,3.402c-0.944,0.818 -2.108,1.227 -3.486,1.227c-1.722,0 -3.113,-0.562 -4.158,-1.689c-1.051,-1.128 -1.578,-2.746 -1.578,-4.853c0,-1.362 0.227,-2.554 0.677,-3.575c0.454,-1.022 1.139,-1.787 2.064,-2.299c0.92,-0.51 1.925,-0.766 3.007,-0.766c1.371,0 2.493,0.349 3.36,1.042c0.872,0.693 1.431,1.674 1.679,2.951l-2.08,0.32c-0.198,-0.847 -0.547,-1.483 -1.049,-1.913c-0.503,-0.426 -1.111,-0.641 -1.825,-0.641c-1.078,0 -1.953,0.386 -2.626,1.16c-0.673,0.77 -1.01,1.991 -1.01,3.661c-0,1.694 0.324,2.926 0.977,3.696c0.649,0.766 1.496,1.151 2.542,1.151c0.839,0 1.536,-0.26 2.1,-0.774c0.563,-0.515 0.92,-1.305 1.07,-2.375Z" style="fill:#feffff;fill-rule:nonzero;"/><path d="M164.552,348.107l2.209,0.272c-0.349,1.293 -0.994,2.294 -1.933,3.008c-0.945,0.709 -2.149,1.065 -3.612,1.065c-1.845,0 -3.308,-0.567 -4.387,-1.702c-1.082,-1.135 -1.621,-2.728 -1.621,-4.779c-0,-2.124 0.548,-3.77 1.638,-4.942c1.094,-1.171 2.509,-1.759 4.252,-1.759c1.687,0 3.064,0.576 4.131,1.723c1.07,1.148 1.605,2.765 1.605,4.844c-0,0.13 -0.004,0.32 -0.012,0.572l-9.405,0c0.078,1.386 0.471,2.448 1.176,3.182c0.705,0.737 1.581,1.106 2.635,1.106c0.782,0 1.451,-0.207 2.006,-0.62c0.555,-0.409 0.993,-1.066 1.318,-1.97Zm-7.017,-3.458l7.041,0c-0.093,-1.057 -0.365,-1.856 -0.807,-2.383c-0.681,-0.823 -1.564,-1.237 -2.647,-1.237c-0.981,0 -1.808,0.328 -2.476,0.986c-0.669,0.656 -1.038,1.536 -1.111,2.634Z" style="fill:#feffff;fill-rule:nonzero;"/><path d="M175.695,346.575l2.173,-0.19c0.101,0.871 0.34,1.584 0.717,2.143c0.377,0.56 0.961,1.01 1.751,1.355c0.791,0.344 1.682,0.514 2.671,0.514c0.88,-0 1.655,-0.13 2.327,-0.389c0.673,-0.263 1.176,-0.62 1.504,-1.074c0.328,-0.458 0.495,-0.953 0.495,-1.492c-0,-0.547 -0.158,-1.021 -0.479,-1.43c-0.316,-0.41 -0.838,-0.75 -1.564,-1.026c-0.47,-0.182 -1.5,-0.467 -3.101,-0.851c-1.597,-0.385 -2.72,-0.746 -3.361,-1.087c-0.831,-0.434 -1.451,-0.977 -1.86,-1.621c-0.406,-0.645 -0.608,-1.367 -0.608,-2.169c0,-0.875 0.247,-1.699 0.745,-2.46c0.499,-0.766 1.229,-1.346 2.185,-1.743c0.961,-0.394 2.023,-0.592 3.195,-0.592c1.293,-0 2.427,0.207 3.416,0.624c0.986,0.414 1.743,1.025 2.275,1.832c0.527,0.807 0.814,1.723 0.855,2.745l-2.209,0.166c-0.122,-1.099 -0.523,-1.934 -1.208,-2.493c-0.685,-0.564 -1.695,-0.843 -3.032,-0.843c-1.395,-0 -2.408,0.255 -3.048,0.766c-0.637,0.51 -0.957,1.127 -0.957,1.844c-0,0.628 0.227,1.143 0.677,1.544c0.446,0.406 1.601,0.82 3.474,1.241c1.872,0.425 3.158,0.795 3.855,1.111c1.014,0.47 1.763,1.061 2.245,1.775c0.482,0.717 0.722,1.544 0.722,2.477c0,0.928 -0.264,1.8 -0.794,2.618c-0.531,0.819 -1.294,1.455 -2.286,1.914c-0.994,0.453 -2.113,0.681 -3.353,0.681c-1.577,0 -2.898,-0.228 -3.96,-0.69c-1.067,-0.458 -1.902,-1.147 -2.51,-2.071c-0.604,-0.92 -0.924,-1.966 -0.952,-3.129Z" style="fill:#feffff;fill-rule:nonzero;"/><path d="M192.428,357.001l-0,-17.442l1.946,0l-0,1.637c0.458,-0.64 0.976,-1.123 1.557,-1.443c0.575,-0.32 1.276,-0.483 2.099,-0.483c1.078,0 2.027,0.28 2.85,0.831c0.827,0.556 1.447,1.338 1.864,2.347c0.422,1.01 0.633,2.116 0.633,3.32c-0,1.29 -0.232,2.453 -0.697,3.486c-0.462,1.034 -1.136,1.824 -2.02,2.376c-0.883,0.547 -1.811,0.822 -2.784,0.822c-0.714,0 -1.35,-0.149 -1.917,-0.449c-0.568,-0.3 -1.03,-0.682 -1.395,-1.14l-0,6.138l-2.136,0Zm1.933,-11.067c-0,1.622 0.328,2.822 0.986,3.6c0.656,0.775 1.455,1.163 2.387,1.163c0.949,0 1.763,-0.401 2.441,-1.208c0.676,-0.803 1.016,-2.047 1.016,-3.733c-0,-1.61 -0.332,-2.809 -0.993,-3.612c-0.66,-0.798 -1.451,-1.2 -2.367,-1.2c-0.912,0 -1.719,0.426 -2.42,1.278c-0.701,0.85 -1.05,2.09 -1.05,3.712Z" style="fill:#feffff;fill-rule:nonzero;"/><path d="M205.156,345.861c0,-2.335 0.649,-4.065 1.949,-5.188c1.083,-0.933 2.405,-1.403 3.965,-1.403c1.735,0 3.154,0.568 4.252,1.706c1.103,1.136 1.65,2.705 1.65,4.707c0,1.626 -0.244,2.902 -0.73,3.831c-0.486,0.932 -1.195,1.654 -2.124,2.169c-0.932,0.514 -1.945,0.769 -3.048,0.769c-1.763,0 -3.19,-0.562 -4.281,-1.698c-1.09,-1.131 -1.633,-2.76 -1.633,-4.893Zm2.197,0c-0,1.617 0.353,2.825 1.058,3.628c0.705,0.807 1.593,1.208 2.659,1.208c1.062,0 1.946,-0.405 2.652,-1.212c0.701,-0.806 1.053,-2.039 1.053,-3.692c-0,-1.561 -0.352,-2.745 -1.062,-3.547c-0.709,-0.803 -1.589,-1.204 -2.643,-1.204c-1.066,-0 -1.954,0.401 -2.659,1.199c-0.705,0.799 -1.058,2.007 -1.058,3.62Z" style="fill:#feffff;fill-rule:nonzero;"/><path d="M219.457,352.169l0,-12.61l1.921,0l0,1.909c0.491,-0.892 0.944,-1.485 1.362,-1.768c0.413,-0.284 0.871,-0.43 1.37,-0.43c0.722,0 1.451,0.231 2.198,0.69l-0.739,1.985c-0.518,-0.311 -1.041,-0.466 -1.564,-0.466c-0.47,0 -0.888,0.142 -1.261,0.422c-0.373,0.283 -0.637,0.673 -0.795,1.171c-0.238,0.759 -0.356,1.589 -0.356,2.493l0,6.604l-2.136,0Z" style="fill:#feffff;fill-rule:nonzero;"/><path d="M232.246,350.256l0.308,1.888c-0.6,0.126 -1.139,0.191 -1.614,0.191c-0.778,0 -1.378,-0.121 -1.807,-0.369c-0.426,-0.243 -0.726,-0.568 -0.901,-0.969c-0.174,-0.397 -0.263,-1.24 -0.263,-2.521l-0,-7.256l-1.569,0l-0,-1.661l1.569,0l-0,-3.126l2.129,-1.281l0,4.407l2.148,0l0,1.661l-2.148,0l0,7.374c0,0.612 0.036,1.001 0.109,1.175c0.077,0.174 0.198,0.312 0.369,0.417c0.17,0.102 0.413,0.155 0.73,0.155c0.238,0 0.55,-0.029 0.94,-0.085Z" style="fill:#feffff;fill-rule:nonzero;"/><path d="M241.483,352.169l0,-17.41l11.748,0l0,2.055l-9.441,-0l-0,5.391l8.168,-0l-0,2.056l-8.168,-0l-0,7.908l-2.307,0Z" style="fill:#feffff;fill-rule:nonzero;"/><path d="M264.581,348.107l2.209,0.272c-0.349,1.293 -0.993,2.294 -1.934,3.008c-0.944,0.709 -2.148,1.065 -3.611,1.065c-1.845,0 -3.308,-0.567 -4.386,-1.702c-1.083,-1.135 -1.621,-2.728 -1.621,-4.779c0,-2.124 0.547,-3.77 1.637,-4.942c1.095,-1.171 2.51,-1.759 4.252,-1.759c1.686,0 3.065,0.576 4.131,1.723c1.07,1.148 1.605,2.765 1.605,4.844c0,0.13 -0.004,0.32 -0.013,0.572l-9.404,0c0.077,1.386 0.471,2.448 1.176,3.182c0.705,0.737 1.581,1.106 2.634,1.106c0.783,0 1.452,-0.207 2.008,-0.62c0.555,-0.409 0.993,-1.066 1.317,-1.97Zm-7.017,-3.458l7.041,0c-0.093,-1.057 -0.365,-1.856 -0.806,-2.383c-0.682,-0.823 -1.565,-1.237 -2.648,-1.237c-0.981,0 -1.807,0.328 -2.477,0.986c-0.668,0.656 -1.036,1.536 -1.11,2.634Z" style="fill:#feffff;fill-rule:nonzero;"/><path d="M277.658,352.169l-0,-1.593c-0.799,1.252 -1.975,1.876 -3.527,1.876c-1.005,0 -1.93,-0.275 -2.773,-0.831c-0.842,-0.551 -1.496,-1.325 -1.962,-2.322c-0.462,-0.993 -0.693,-2.132 -0.693,-3.425c0,-1.257 0.211,-2.4 0.629,-3.426c0.421,-1.025 1.05,-1.811 1.889,-2.355c0.838,-0.547 1.779,-0.823 2.817,-0.823c0.758,0 1.435,0.163 2.026,0.483c0.596,0.32 1.078,0.737 1.452,1.252l-0,-6.246l2.124,0l0,17.41l-1.982,0Zm-6.758,-6.295c-0,1.617 0.341,2.825 1.022,3.623c0.68,0.799 1.483,1.2 2.412,1.2c0.932,0 1.726,-0.385 2.379,-1.146c0.653,-0.763 0.981,-1.93 0.981,-3.499c0,-1.727 -0.332,-2.992 -0.997,-3.798c-0.665,-0.811 -1.483,-1.212 -2.461,-1.212c-0.948,-0 -1.743,0.389 -2.379,1.163c-0.636,0.774 -0.957,1.998 -0.957,3.669Z" style="fill:#feffff;fill-rule:nonzero;"/><path d="M291.634,348.107l2.21,0.272c-0.349,1.293 -0.994,2.294 -1.934,3.008c-0.944,0.709 -2.148,1.065 -3.612,1.065c-1.844,0 -3.308,-0.567 -4.386,-1.702c-1.082,-1.135 -1.621,-2.728 -1.621,-4.779c-0,-2.124 0.547,-3.77 1.638,-4.942c1.094,-1.171 2.508,-1.759 4.252,-1.759c1.686,0 3.064,0.576 4.13,1.723c1.07,1.148 1.606,2.765 1.606,4.844c-0,0.13 -0.005,0.32 -0.013,0.572l-9.404,0c0.077,1.386 0.471,2.448 1.176,3.182c0.705,0.737 1.581,1.106 2.634,1.106c0.783,0 1.452,-0.207 2.006,-0.62c0.556,-0.409 0.993,-1.066 1.318,-1.97Zm-7.016,-3.458l7.041,0c-0.094,-1.057 -0.365,-1.856 -0.808,-2.383c-0.68,-0.823 -1.564,-1.237 -2.646,-1.237c-0.981,0 -1.808,0.328 -2.477,0.986c-0.669,0.656 -1.038,1.536 -1.11,2.634Z" style="fill:#feffff;fill-rule:nonzero;"/><path d="M296.507,352.169l-0,-12.61l1.921,0l0,1.909c0.491,-0.892 0.944,-1.485 1.362,-1.768c0.413,-0.284 0.871,-0.43 1.37,-0.43c0.722,0 1.451,0.231 2.197,0.69l-0.738,1.985c-0.519,-0.311 -1.041,-0.466 -1.564,-0.466c-0.47,0 -0.888,0.142 -1.261,0.422c-0.373,0.283 -0.637,0.673 -0.795,1.171c-0.238,0.759 -0.357,1.589 -0.357,2.493l-0,6.604l-2.135,0Z" style="fill:#feffff;fill-rule:nonzero;"/><path d="M312.858,350.612c-0.794,0.673 -1.556,1.148 -2.286,1.427c-0.733,0.275 -1.519,0.413 -2.359,0.413c-1.386,0 -2.448,-0.336 -3.195,-1.013c-0.741,-0.676 -1.114,-1.545 -1.114,-2.594c-0,-0.62 0.138,-1.184 0.422,-1.695c0.279,-0.51 0.648,-0.92 1.103,-1.228c0.458,-0.308 0.968,-0.543 1.54,-0.7c0.417,-0.111 1.049,-0.22 1.897,-0.322c1.727,-0.206 2.999,-0.449 3.814,-0.737c0.008,-0.292 0.012,-0.479 0.012,-0.556c-0,-0.871 -0.203,-1.487 -0.607,-1.84c-0.544,-0.486 -1.359,-0.725 -2.433,-0.725c-1.005,-0 -1.747,0.174 -2.229,0.527c-0.479,0.353 -0.831,0.977 -1.062,1.872l-2.088,-0.288c0.191,-0.891 0.503,-1.617 0.937,-2.164c0.433,-0.552 1.065,-0.977 1.889,-1.272c0.823,-0.296 1.775,-0.447 2.861,-0.447c1.078,0 1.95,0.13 2.623,0.381c0.673,0.256 1.167,0.572 1.487,0.957c0.317,0.385 0.535,0.868 0.665,1.455c0.07,0.365 0.106,1.022 0.106,1.97l0,2.85c0,1.99 0.045,3.247 0.137,3.77c0.089,0.527 0.272,1.033 0.539,1.516l-2.233,0c-0.219,-0.443 -0.365,-0.961 -0.426,-1.557Zm-0.178,-4.775c-0.778,0.32 -1.942,0.588 -3.49,0.81c-0.88,0.126 -1.504,0.268 -1.865,0.426c-0.364,0.158 -0.648,0.39 -0.843,0.697c-0.198,0.304 -0.3,0.641 -0.3,1.014c0,0.571 0.219,1.046 0.649,1.427c0.43,0.377 1.061,0.567 1.893,0.567c0.823,-0 1.556,-0.178 2.197,-0.539c0.64,-0.36 1.115,-0.855 1.415,-1.479c0.23,-0.483 0.344,-1.197 0.344,-2.136l-0,-0.787Z" style="fill:#feffff;fill-rule:nonzero;"/><path d="M322.822,350.256l0.308,1.888c-0.6,0.126 -1.139,0.191 -1.614,0.191c-0.778,0 -1.377,-0.121 -1.807,-0.369c-0.426,-0.243 -0.726,-0.568 -0.9,-0.969c-0.174,-0.397 -0.263,-1.24 -0.263,-2.521l-0,-7.256l-1.57,0l0,-1.661l1.57,0l-0,-3.126l2.128,-1.281l0,4.407l2.148,0l-0,1.661l-2.148,0l0,7.374c0,0.612 0.036,1.001 0.109,1.175c0.077,0.174 0.198,0.312 0.369,0.417c0.17,0.102 0.413,0.155 0.73,0.155c0.239,0 0.55,-0.029 0.94,-0.085Z" style="fill:#feffff;fill-rule:nonzero;"/><path d="M324.922,337.22l-0,-2.461l2.14,0l0,2.461l-2.14,-0Zm-0,14.949l-0,-12.61l2.14,0l0,12.61l-2.14,0Z" style="fill:#feffff;fill-rule:nonzero;"/><path d="M329.518,345.861c0,-2.335 0.649,-4.065 1.951,-5.188c1.082,-0.933 2.403,-1.403 3.963,-1.403c1.736,0 3.154,0.568 4.252,1.706c1.104,1.136 1.651,2.705 1.651,4.707c-0,1.626 -0.243,2.902 -0.73,3.831c-0.487,0.932 -1.196,1.654 -2.124,2.169c-0.932,0.514 -1.946,0.769 -3.049,0.769c-1.762,0 -3.19,-0.562 -4.28,-1.698c-1.091,-1.131 -1.634,-2.76 -1.634,-4.893Zm2.198,0c0,1.617 0.352,2.825 1.057,3.628c0.705,0.807 1.594,1.208 2.659,1.208c1.063,0 1.946,-0.405 2.652,-1.212c0.701,-0.806 1.054,-2.039 1.054,-3.692c0,-1.561 -0.353,-2.745 -1.063,-3.547c-0.709,-0.803 -1.589,-1.204 -2.643,-1.204c-1.065,-0 -1.954,0.401 -2.659,1.199c-0.705,0.799 -1.057,2.007 -1.057,3.62Z" style="fill:#feffff;fill-rule:nonzero;"/><path d="M343.844,352.169l-0,-12.61l1.922,0l-0,1.791c0.927,-1.386 2.265,-2.08 4.012,-2.08c0.762,0 1.459,0.138 2.096,0.41c0.641,0.275 1.114,0.632 1.431,1.078c0.32,0.442 0.539,0.968 0.669,1.577c0.077,0.397 0.117,1.091 0.117,2.079l0,7.755l-2.14,0l-0,-7.674c-0,-0.867 -0.081,-1.519 -0.248,-1.953c-0.166,-0.43 -0.462,-0.775 -0.883,-1.03c-0.426,-0.259 -0.92,-0.389 -1.492,-0.389c-0.912,0 -1.694,0.292 -2.359,0.867c-0.661,0.58 -0.99,1.674 -0.99,3.292l0,6.887l-2.135,0Z" style="fill:#feffff;fill-rule:nonzero;"/><path d="M36.451,274.911l-0.93,-3.631c1.975,-0.59 3.711,-0.598 5.206,-0.034c1.495,0.569 2.76,1.682 3.797,3.343c1.282,2.054 1.635,4.178 1.057,6.378c-0.578,2.199 -2.081,4.059 -4.514,5.58c-2.573,1.605 -4.986,2.191 -7.24,1.75c-2.255,-0.438 -4.06,-1.741 -5.415,-3.907c-1.181,-1.89 -1.584,-3.776 -1.202,-5.657c0.221,-1.117 0.841,-2.238 1.86,-3.363l2.667,2.633c-0.683,0.683 -1.079,1.456 -1.181,2.327c-0.101,0.87 0.107,1.72 0.625,2.552c0.717,1.146 1.707,1.817 2.977,2.017c1.27,0.2 2.823,-0.276 4.667,-1.426c1.953,-1.224 3.125,-2.443 3.516,-3.665c0.39,-1.223 0.238,-2.396 -0.467,-3.521c-0.518,-0.828 -1.228,-1.38 -2.128,-1.647c-0.904,-0.268 -2,-0.179 -3.295,0.271Zm-9.415,15.721l-1.499,-2.395l0.862,-2.119l-2.336,-0.242l-1.49,-2.383l4.476,0.238l1.716,2.744l-1.729,4.157Z" style="fill:#feffff;fill-rule:nonzero;"/><path d="M33.366,253.831l-17.02,6.532l-4.846,-12.622l2.879,-1.103l3.525,9.184l3.776,-1.448l-3.283,-8.548l2.871,-1.1l3.278,8.544l4.633,-1.775l-3.652,-9.508l2.871,-1.104l4.968,12.948Z" style="fill:#feffff;fill-rule:nonzero;"/><path d="M18.484,227.4l-0.968,-3.466c1.147,-0.419 1.941,-1.006 2.382,-1.753c0.442,-0.748 0.565,-1.673 0.37,-2.773c-0.204,-1.168 -0.607,-2.005 -1.206,-2.51c-0.599,-0.506 -1.228,-0.701 -1.89,-0.582c-0.425,0.076 -0.764,0.264 -1.019,0.565c-0.255,0.302 -0.438,0.781 -0.548,1.44c-0.072,0.449 -0.161,1.465 -0.272,3.04c-0.14,2.03 -0.488,3.499 -1.053,4.408c-0.794,1.274 -1.903,2.039 -3.321,2.289c-0.917,0.162 -1.818,0.051 -2.705,-0.327c-0.887,-0.378 -1.626,-1.015 -2.213,-1.92c-0.589,-0.9 -1.006,-2.043 -1.248,-3.422c-0.399,-2.255 -0.204,-4.039 0.586,-5.351c0.786,-1.313 2,-2.145 3.639,-2.493l0.799,3.597c-0.896,0.319 -1.503,0.769 -1.818,1.35c-0.314,0.582 -0.378,1.385 -0.199,2.404c0.186,1.053 0.548,1.839 1.087,2.362c0.344,0.331 0.747,0.458 1.214,0.378c0.425,-0.078 0.756,-0.319 0.994,-0.731c0.306,-0.526 0.51,-1.708 0.616,-3.546c0.102,-1.835 0.306,-3.215 0.599,-4.14c0.297,-0.922 0.79,-1.691 1.478,-2.306c0.688,-0.612 1.596,-1.02 2.734,-1.219c1.028,-0.183 2.043,-0.068 3.041,0.348c0.998,0.412 1.809,1.1 2.429,2.068c0.62,0.968 1.07,2.234 1.346,3.792c0.399,2.272 0.183,4.107 -0.654,5.508c-0.832,1.401 -2.233,2.399 -4.2,2.99Z" style="fill:#feffff;fill-rule:nonzero;"/><path d="M20.003,195.563l-18.231,0.319l-0.064,-3.682l8.099,-0.141l-8.226,-7.295l-0.089,-4.947l7.223,6.739l11.003,-7.432l0.081,4.761l-8.468,5.164l3.1,2.93l5.508,-0.098l0.064,3.682Z" style="fill:#feffff;fill-rule:nonzero;"/><path d="M22.337,159.603l-7.534,-1.461l-11.64,4.54l0.824,-4.238l7.899,-2.833l-6.277,-5.508l0.807,-4.161l9.113,8.599l7.509,1.46l-0.701,3.602Zm-19.017,-3.202l-3.32,-2.395l0.747,-3.848l2.998,4.068l-0.425,2.175Z" style="fill:#feffff;fill-rule:nonzero;"/><path d="M24.757,125.583l1.198,-3.393c1.185,0.31 2.169,0.289 2.959,-0.072c0.791,-0.357 1.419,-1.045 1.895,-2.06c0.5,-1.074 0.649,-1.991 0.45,-2.747c-0.2,-0.756 -0.607,-1.278 -1.215,-1.563c-0.39,-0.178 -0.776,-0.221 -1.159,-0.119c-0.382,0.102 -0.807,0.391 -1.274,0.867c-0.319,0.327 -0.972,1.108 -1.97,2.335c-1.274,1.584 -2.409,2.582 -3.389,3.002c-1.385,0.591 -2.727,0.582 -4.035,-0.029c-0.84,-0.391 -1.52,-0.998 -2.03,-1.818c-0.509,-0.815 -0.747,-1.766 -0.713,-2.841c0.039,-1.078 0.353,-2.251 0.943,-3.52c0.968,-2.077 2.153,-3.423 3.55,-4.051c1.397,-0.625 2.866,-0.608 4.412,0.047l-1.41,3.405c-0.917,-0.25 -1.668,-0.229 -2.263,0.068c-0.59,0.293 -1.105,0.913 -1.542,1.851c-0.454,0.969 -0.607,1.822 -0.462,2.557c0.089,0.472 0.348,0.806 0.777,1.006c0.391,0.183 0.802,0.175 1.235,-0.025c0.548,-0.259 1.393,-1.109 2.535,-2.552c1.139,-1.444 2.094,-2.463 2.867,-3.05c0.773,-0.586 1.618,-0.934 2.531,-1.04c0.918,-0.11 1.898,0.081 2.943,0.565c0.947,0.442 1.711,1.121 2.293,2.03c0.578,0.913 0.845,1.945 0.799,3.092c-0.043,1.15 -0.404,2.446 -1.07,3.881c-0.977,2.089 -2.209,3.465 -3.695,4.136c-1.491,0.671 -3.206,0.684 -5.16,0.038Z" style="fill:#feffff;fill-rule:nonzero;"/><path d="M46.421,96.46l-18.842,-4.463l2.175,-3.351l13.831,3.483l-8.884,-11.097l2.128,-3.274l11.733,15.407l-2.141,3.295Z" style="fill:#feffff;fill-rule:nonzero;"/><path d="M71.674,65.826l-2.781,2.878l-4.085,-1.732l-5.066,5.245l1.936,3.958l-2.714,2.811l-8.183,-17.777l2.705,-2.798l18.188,7.415Zm-9.898,-0.136l-6.613,-2.893l3.156,6.472l3.457,-3.579Z" style="fill:#feffff;fill-rule:nonzero;"/><path d="M81.619,56.903l-2.048,-2.616l0.268,-15.215l-6.693,5.231l-1.902,-2.429l10.519,-8.217l1.758,2.255l-0.297,15.84l8.174,-6.387l1.89,2.421l-11.669,9.117Z" style="fill:#feffff;fill-rule:nonzero;"/><path d="M117.528,34.519l-6.158,-13.835l-4.943,2.2l-1.253,-2.816l13.233,-5.894l1.257,2.815l-4.93,2.196l6.157,13.84l-3.363,1.494Z" style="fill:#feffff;fill-rule:nonzero;"/><path d="M154.352,22.017l-3.868,1.037l-2.612,-3.589l-7.041,1.885l-0.382,4.392l-3.771,1.01l2.14,-19.449l3.763,-1.011l11.771,15.725Zm-8.416,-5.214l-4.179,-5.887l-0.628,7.173l4.807,-1.286Z" style="fill:#feffff;fill-rule:nonzero;"/><path d="M169.155,19.741l-1.27,-18.188l3.571,-0.25l8.294,11.627l-0.849,-12.146l3.409,-0.238l1.274,18.184l-3.686,0.259l-8.161,-11.347l0.828,11.861l-3.41,0.238Z" style="fill:#feffff;fill-rule:nonzero;"/><path d="M200.463,19.078l2.221,-18.094l13.419,1.648l-0.378,3.061l-9.762,-1.201l-0.493,4.013l9.088,1.116l-0.378,3.049l-9.083,-1.116l-0.604,4.926l10.107,1.24l-0.374,3.048l-13.763,-1.69Z" style="fill:#feffff;fill-rule:nonzero;"/><path d="M243.114,20.463l3.155,2.017c-1.044,1.78 -2.305,2.973 -3.783,3.576c-1.482,0.607 -3.168,0.654 -5.058,0.148c-2.335,-0.628 -4.047,-1.94 -5.121,-3.945c-1.079,-2 -1.249,-4.387 -0.505,-7.156c0.785,-2.934 2.152,-5.006 4.101,-6.22c1.949,-1.219 4.157,-1.495 6.621,-0.837c2.158,0.577 3.737,1.686 4.74,3.317c0.598,0.967 0.913,2.212 0.933,3.728l-3.745,-0.102c0.038,-0.968 -0.204,-1.805 -0.726,-2.514c-0.518,-0.705 -1.249,-1.185 -2.196,-1.435c-1.304,-0.353 -2.488,-0.166 -3.554,0.552c-1.062,0.722 -1.877,2.127 -2.438,4.229c-0.599,2.226 -0.619,3.92 -0.072,5.079c0.544,1.159 1.461,1.911 2.744,2.255c0.942,0.251 1.838,0.17 2.68,-0.25c0.84,-0.417 1.584,-1.232 2.224,-2.442Zm-3.839,-17.921l2.727,0.73l0.815,2.141l1.877,-1.418l2.713,0.726l-3.434,2.879l-3.126,-0.836l-1.572,-4.222Z" style="fill:#feffff;fill-rule:nonzero;"/><path d="M259.577,34.49l8.276,-16.244l3.19,1.627l1.121,14.234l5.529,-10.85l3.044,1.554l-8.276,16.244l-3.291,-1.677l-1.151,-13.929l-5.397,10.595l-3.045,-1.554Z" style="fill:#feffff;fill-rule:nonzero;"/><path d="M286.342,50.172l10.455,-14.935l3.015,2.114l-10.456,14.932l-3.014,-2.111Zm10.71,-16.031l3.541,-2.063l3.207,2.246l-4.935,1.087l-1.813,-1.27Z" style="fill:#feffff;fill-rule:nonzero;"/><path d="M301.98,62.933l12.438,-13.338l2.692,2.514l-4.896,5.248l5.279,4.918l4.892,-5.249l2.692,2.51l-12.434,13.338l-2.692,-2.513l5.436,-5.831l-5.275,-4.917l-5.439,5.83l-2.693,-2.51Z" style="fill:#feffff;fill-rule:nonzero;"/><path d="M329.972,80.192c1.503,-1.092 2.925,-1.784 4.272,-2.073c0.993,-0.212 2.004,-0.242 3.02,-0.098c1.018,0.149 1.923,0.464 2.717,0.943c1.053,0.637 2.022,1.554 2.892,2.756c1.58,2.174 2.17,4.404 1.767,6.689c-0.4,2.284 -1.801,4.297 -4.2,6.043c-2.383,1.728 -4.718,2.438 -7.003,2.119c-2.285,-0.319 -4.217,-1.558 -5.789,-3.729c-1.595,-2.191 -2.195,-4.42 -1.796,-6.688c0.4,-2.268 1.772,-4.255 4.12,-5.962Zm2.332,2.998c-1.674,1.214 -2.66,2.518 -2.96,3.915c-0.302,1.401 -0.022,2.692 0.84,3.881c0.863,1.185 2,1.848 3.41,1.988c1.406,0.14 2.968,-0.408 4.675,-1.652c1.691,-1.227 2.684,-2.514 2.978,-3.86c0.293,-1.346 -0.004,-2.633 -0.897,-3.86c-0.891,-1.228 -2.034,-1.912 -3.422,-2.051c-1.384,-0.141 -2.93,0.407 -4.624,1.639Z" style="fill:#feffff;fill-rule:nonzero;"/><path d="M348.809,118.385l1.665,3.189c-1.036,0.65 -1.69,1.389 -1.966,2.209c-0.276,0.823 -0.203,1.754 0.216,2.794c0.446,1.1 1.011,1.835 1.704,2.204c0.688,0.369 1.346,0.429 1.97,0.174c0.4,-0.161 0.693,-0.416 0.879,-0.764c0.183,-0.349 0.263,-0.854 0.234,-1.525c-0.022,-0.455 -0.145,-1.465 -0.366,-3.032c-0.284,-2.013 -0.246,-3.52 0.115,-4.527c0.514,-1.414 1.435,-2.391 2.773,-2.93c0.862,-0.348 1.767,-0.433 2.714,-0.247c0.947,0.188 1.805,0.659 2.564,1.419c0.765,0.76 1.411,1.792 1.937,3.092c0.853,2.123 1.036,3.907 0.539,5.354c-0.496,1.449 -1.512,2.514 -3.044,3.198l-1.529,-3.354c0.811,-0.497 1.308,-1.062 1.495,-1.699c0.186,-0.633 0.085,-1.431 -0.302,-2.391c-0.403,-0.994 -0.922,-1.686 -1.554,-2.085c-0.408,-0.255 -0.829,-0.293 -1.27,-0.119c-0.399,0.161 -0.671,0.471 -0.819,0.922c-0.187,0.577 -0.145,1.774 0.135,3.596c0.281,1.818 0.37,3.211 0.273,4.179c-0.098,0.964 -0.417,1.817 -0.965,2.561c-0.543,0.743 -1.35,1.333 -2.42,1.762c-0.969,0.391 -1.983,0.488 -3.05,0.293c-1.061,-0.196 -2,-0.705 -2.806,-1.52c-0.812,-0.82 -1.512,-1.962 -2.103,-3.432c-0.865,-2.14 -1.036,-3.979 -0.509,-5.524c0.527,-1.546 1.69,-2.811 3.49,-3.797Z" style="fill:#feffff;fill-rule:nonzero;"/><path d="M352.881,149.852l17.903,-3.478l1.125,5.801c0.43,2.196 0.616,3.648 0.569,4.349c-0.072,1.078 -0.488,2.051 -1.253,2.917c-0.764,0.867 -1.86,1.44 -3.283,1.716c-1.099,0.216 -2.063,0.195 -2.891,-0.059c-0.824,-0.251 -1.512,-0.646 -2.06,-1.177c-0.543,-0.53 -0.951,-1.1 -1.21,-1.707c-0.34,-0.832 -0.667,-2.064 -0.985,-3.703l-0.459,-2.357l-6.752,1.317l-0.704,-3.619Zm15.576,0.727l-5.079,0.985l0.382,1.979c0.28,1.427 0.556,2.361 0.837,2.803c0.28,0.445 0.649,0.764 1.099,0.959c0.455,0.196 0.944,0.242 1.474,0.136c0.65,-0.123 1.151,-0.421 1.499,-0.883c0.348,-0.467 0.518,-1.002 0.51,-1.609c-0,-0.447 -0.127,-1.321 -0.382,-2.625l-0.34,-1.745Z" style="fill:#feffff;fill-rule:nonzero;"/><path d="M366.234,179.112c1.861,0.029 3.414,0.335 4.662,0.913c0.922,0.429 1.746,1.011 2.472,1.741c0.723,0.73 1.257,1.524 1.602,2.387c0.458,1.142 0.674,2.454 0.649,3.94c-0.047,2.684 -0.917,4.82 -2.611,6.404c-1.695,1.584 -4.027,2.349 -6.994,2.298c-2.944,-0.051 -5.233,-0.892 -6.864,-2.523c-1.634,-1.627 -2.428,-3.779 -2.382,-6.459c0.047,-2.71 0.914,-4.85 2.595,-6.421c1.682,-1.571 3.971,-2.331 6.871,-2.28Zm0.06,3.792c-2.065,-0.034 -3.636,0.416 -4.719,1.351c-1.082,0.933 -1.635,2.136 -1.66,3.6c-0.025,1.47 0.48,2.681 1.52,3.64c1.04,0.959 2.621,1.46 4.731,1.495c2.09,0.038 3.657,-0.395 4.701,-1.291c1.045,-0.9 1.58,-2.107 1.606,-3.623c0.025,-1.516 -0.472,-2.751 -1.496,-3.694c-1.023,-0.948 -2.586,-1.44 -4.683,-1.478Z" style="fill:#feffff;fill-rule:nonzero;"/><path d="M355.306,212.299l17.955,3.164l-1.347,7.631c-0.335,1.92 -0.743,3.287 -1.219,4.098c-0.475,0.811 -1.172,1.409 -2.089,1.783c-0.918,0.378 -1.907,0.476 -2.968,0.285c-1.346,-0.234 -2.391,-0.828 -3.13,-1.775c-0.74,-0.947 -1.082,-2.229 -1.032,-3.843c-0.594,0.701 -1.21,1.261 -1.851,1.673c-0.638,0.416 -1.729,0.93 -3.279,1.55l-3.89,1.575l0.765,-4.336l4.37,-1.931c1.562,-0.684 2.551,-1.168 2.976,-1.445c0.425,-0.28 0.74,-0.598 0.939,-0.959c0.204,-0.361 0.378,-0.956 0.526,-1.788l0.128,-0.735l-7.496,-1.324l0.642,-3.623Zm9.72,5.453l-0.471,2.68c-0.306,1.741 -0.425,2.84 -0.353,3.299c0.068,0.458 0.264,0.84 0.578,1.151c0.319,0.305 0.743,0.51 1.282,0.603c0.603,0.106 1.121,0.03 1.55,-0.225c0.429,-0.259 0.743,-0.671 0.943,-1.241c0.093,-0.288 0.272,-1.168 0.531,-2.636l0.497,-2.828l-4.557,-0.803Z" style="fill:#feffff;fill-rule:nonzero;"/><path d="M346.374,246.599l14.141,5.427l1.94,-5.05l2.88,1.105l-5.194,13.525l-2.879,-1.108l1.936,-5.037l-14.141,-5.427l1.317,-3.435Z" style="fill:#feffff;fill-rule:nonzero;"/><path d="M351.773,278.491l-1.949,3.126l-8.374,-5.236c-1.329,-0.829 -2.217,-1.33 -2.658,-1.499c-0.718,-0.259 -1.423,-0.259 -2.119,0.004c-0.701,0.262 -1.322,0.832 -1.866,1.703c-0.555,0.887 -0.789,1.669 -0.708,2.344c0.081,0.674 0.356,1.223 0.828,1.643c0.467,0.425 1.317,1.015 2.54,1.779l8.552,5.347l-1.949,3.121l-8.124,-5.074c-1.855,-1.16 -3.112,-2.065 -3.775,-2.714c-0.662,-0.645 -1.113,-1.363 -1.359,-2.144c-0.242,-0.782 -0.285,-1.653 -0.124,-2.608c0.162,-0.956 0.625,-2.043 1.389,-3.266c0.926,-1.477 1.797,-2.493 2.612,-3.041c0.82,-0.551 1.639,-0.878 2.459,-0.98c0.824,-0.102 1.576,-0.034 2.263,0.195c1.011,0.353 2.383,1.066 4.115,2.149l8.247,5.151Z" style="fill:#feffff;fill-rule:nonzero;"/><path d="M186.31,31.431c-0.028,-0 -0.053,0.006 -0.081,0.008c-22.451,0.154 -44.171,5.457 -63.387,14.359c-3.72,1.723 -7.379,3.602 -10.962,5.621c-3.596,2.028 -7.041,4.156 -10.319,6.369l-0.233,0.157l0.008,0.012c-0.423,0.296 -0.7,0.785 -0.7,1.34c0,0.905 0.733,1.637 1.637,1.637c0.364,-0 0.696,-0.122 0.968,-0.322l0.154,-0.105c3.292,-2.223 6.661,-4.307 10.088,-6.24c3.442,-1.941 7.025,-3.777 10.732,-5.494c18.84,-8.728 40.121,-13.925 62.095,-14.066l-0,-0.002c0.905,-0 1.638,-0.733 1.638,-1.637c-0,-0.905 -0.733,-1.637 -1.638,-1.637Z" style="fill:#feffff;"/><path d="M273.18,56.413c-8.294,-5.427 -17.152,-10.096 -26.464,-13.9c-9.308,-3.801 -19.04,-6.725 -29.092,-8.663l-0.011,-0.001l0,0.001c-0.008,-0.001 -0.014,-0.005 -0.022,-0.007c-0.888,-0.17 -1.746,0.412 -1.916,1.3c-0.17,0.889 0.412,1.747 1.3,1.916c0.008,0.002 0.016,0.001 0.024,0.003l-0.001,0.005l0.01,0.003c9.868,1.902 19.393,4.759 28.476,8.469c9.076,3.706 17.744,8.281 25.901,13.62c41.853,27.388 69.676,74.702 69.676,127.927l0,0.006l0.007,-0c-0,16.01 -2.607,31.49 -7.351,46.067c-0.766,2.354 -1.596,4.703 -2.486,7.043c-4.547,11.954 -10.535,23.223 -17.689,33.587c-0.001,0.001 -0.001,0.001 -0.001,0.002c-0.002,0.001 -0.003,0.003 -0.004,0.005l0.001,-0c-0.175,0.26 -0.276,0.572 -0.276,0.909c-0,0.904 0.732,1.638 1.636,1.638c0.55,0 1.034,-0.274 1.331,-0.689l0.001,-0c0.002,-0.003 0.004,-0.006 0.006,-0.01c0.013,-0.017 0.025,-0.035 0.036,-0.053c7.296,-10.576 13.398,-22.058 18.025,-34.223c0.894,-2.354 1.741,-4.754 2.536,-7.195c4.843,-14.882 7.505,-30.702 7.506,-47.081l0.006,-0l0,-0.006c0,-54.37 -28.418,-102.698 -71.165,-130.673Z" style="fill:#feffff;"/><path d="M83.21,76.401c-0,-0.904 -0.733,-1.637 -1.637,-1.637c-0.445,0 -0.847,0.178 -1.142,0.466l-0.002,-0.002c-12.268,12.017 -22.639,25.968 -30.548,41.31c-1.534,2.974 -2.98,6.012 -4.333,9.107c-8.284,18.952 -12.903,39.741 -12.904,61.436l-0.006,-0l0,0.005c0,23.855 5.52,46.469 15.285,66.636c1.902,3.93 3.961,7.758 6.166,11.475c2.185,3.686 4.526,7.279 7.011,10.774c0.289,0.463 0.799,0.773 1.385,0.773c0.904,0 1.637,-0.733 1.637,-1.638c0,-0.346 -0.109,-0.667 -0.292,-0.931l0.006,-0.004l-0.004,-0.005c-2.442,-3.432 -4.753,-6.98 -6.922,-10.636c-2.168,-3.656 -4.184,-7.403 -6.038,-11.231c-9.551,-19.728 -14.951,-41.858 -14.951,-65.213l0,-0.005l-0.007,-0c0,-21.224 4.524,-41.571 12.634,-60.128c1.317,-3.011 2.733,-5.984 4.244,-8.915c7.748,-15.029 17.908,-28.697 29.928,-40.47c0.302,-0.298 0.49,-0.71 0.49,-1.167Z" style="fill:#feffff;fill-rule:nonzero;"/></g></svg>