<?xml version="1.0" encoding="UTF-8" standalone="no"?><!DOCTYPE svg PUBLIC "-//W3C//DTD SVG 1.1//EN" "http://www.w3.org/Graphics/SVG/1.1/DTD/svg11.dtd"><svg width="256px" height="256px" version="1.1" xmlns="http://www.w3.org/2000/svg" xmlns:xlink="http://www.w3.org/1999/xlink" xml:space="preserve" xmlns:serif="http://www.serif.com/" style="fill-rule:evenodd;clip-rule:evenodd;stroke-linejoin:round;stroke-miterlimit:2;"><path d="M158.524,232.53c-20.042,0 -36.297,-16.253 -36.297,-36.297l0.002,-0.248l6.528,0l-0.002,0.248c0,16.438 13.331,29.768 29.769,29.768c16.438,0 29.769,-13.33 29.769,-29.768c0,-5.353 -1.416,-10.375 -3.892,-14.715l7.309,0c1.999,4.498 3.11,9.476 3.11,14.715c0,20.044 -16.253,36.297 -36.297,36.297" style="fill:#004996;"/><path d="M78.81,73.218c4.639,14.937 13.918,3.154 35.996,31.728c-14.751,-31.728 -35.996,-31.728 -35.996,-31.728" style="fill:#004996;"/><path d="M163.048,56.797c-17.627,13.916 -45.552,2.783 -60.117,20.781c21.245,-8.535 50.097,2.783 60.117,-20.781" style="fill:#004996;"/><path d="M125.846,98.267c-0.649,-9.927 8.164,-21.524 -10.205,-20.874c8.35,5.474 2.783,6.958 2.598,20.874c0.742,21.43 24.772,48.056 44.995,59.653c0,0 -32.749,-22.915 -37.387,-59.653" style="fill:#004996;"/><path d="M151.173,74.703c-0.278,0 -13.916,3.153 -14.007,2.969c-2.414,2.319 -3.804,7.793 -4.455,13.545c-3.062,26.44 21.523,53.994 35.903,68.745c1.648,0.81 18.926,5.01 19.204,5.01c-17.349,-20.039 -57.984,-60.21 -36.646,-90.268" style="fill:#004996;"/><path d="M82.707,167.012c-1.483,1.113 -1.948,0.928 -5.102,4.268c-5.752,-21.152 11.875,-36.46 11.782,-36.553c0,0 -11.226,14.751 -6.68,32.285" style="fill:#004996;"/><path d="M98.48,158.292c-3.341,1.021 -5.475,1.948 -9.279,4.453c-7.051,-28.11 14.751,-43.047 14.009,-43.789c0,0 -12.337,18.091 -4.73,39.336" style="fill:#004996;"/><path d="M120.466,152.911c-5.103,0.464 -9.741,0.834 -15.308,2.782c-9.649,-23.1 3.711,-33.49 4.639,-49.911c4.731,15.029 -6.401,23.101 10.669,47.129" style="fill:#004996;"/><path d="M83.449,49.838c2.876,-1.669 7.793,1.207 10.855,6.588c3.154,5.288 3.247,11.04 0.465,12.709c-2.97,1.671 -7.793,-1.298 -10.949,-6.586c-3.154,-5.288 -3.247,-11.04 -0.371,-12.711" style="fill:#004996;"/><path d="M136.144,34.439c3.804,1.113 5.381,7.515 3.433,14.102c-1.948,6.68 -6.68,11.133 -10.483,10.018c-3.803,-1.112 -5.379,-7.421 -3.431,-14.008c1.947,-6.68 6.678,-11.226 10.482,-10.112" style="fill:#004996;"/><path d="M57.355,147.911l-0.434,-1.695c0.921,-0.275 1.732,-0.279 2.43,-0.016c0.697,0.266 1.288,0.785 1.772,1.56c0.599,0.959 0.763,1.95 0.494,2.977c-0.269,1.027 -0.971,1.895 -2.107,2.604c-1.201,0.749 -2.327,1.023 -3.379,0.817c-1.053,-0.204 -1.895,-0.813 -2.527,-1.823c-0.551,-0.882 -0.739,-1.762 -0.561,-2.64c0.103,-0.521 0.392,-1.044 0.868,-1.57l1.245,1.229c-0.319,0.319 -0.503,0.68 -0.551,1.086c-0.048,0.406 0.05,0.803 0.291,1.191c0.335,0.535 0.797,0.848 1.389,0.941c0.593,0.093 1.318,-0.129 2.178,-0.666c0.912,-0.571 1.459,-1.14 1.641,-1.71c0.182,-0.571 0.111,-1.118 -0.218,-1.643c-0.242,-0.387 -0.573,-0.644 -0.993,-0.769c-0.422,-0.125 -0.934,-0.083 -1.538,0.127Zm-4.394,7.337l-0.7,-1.118l0.402,-0.989l-1.09,-0.113l-0.696,-1.112l2.089,0.111l0.801,1.28l-0.807,1.94Z" style="fill:#1d1d1b;fill-rule:nonzero;"/><path d="M55.915,138.073l-7.943,3.048l-2.261,-5.89l1.344,-0.515l1.645,4.287l1.762,-0.676l-1.532,-3.99l1.34,-0.513l1.53,3.988l2.162,-0.828l-1.704,-4.438l1.34,-0.515l2.319,6.043Z" style="fill:#1d1d1b;fill-rule:nonzero;"/><path d="M48.97,125.737l-0.452,-1.617c0.535,-0.196 0.906,-0.47 1.112,-0.818c0.206,-0.349 0.264,-0.781 0.172,-1.294c-0.095,-0.545 -0.283,-0.936 -0.563,-1.171c-0.279,-0.236 -0.573,-0.327 -0.882,-0.271c-0.198,0.036 -0.357,0.123 -0.476,0.264c-0.119,0.141 -0.204,0.365 -0.256,0.672c-0.034,0.21 -0.075,0.684 -0.127,1.419c-0.065,0.947 -0.228,1.633 -0.492,2.057c-0.371,0.595 -0.888,0.951 -1.55,1.068c-0.428,0.075 -0.848,0.024 -1.262,-0.153c-0.414,-0.176 -0.759,-0.474 -1.033,-0.896c-0.276,-0.42 -0.47,-0.953 -0.583,-1.597c-0.186,-1.052 -0.095,-1.885 0.273,-2.497c0.367,-0.612 0.934,-1.001 1.699,-1.163l0.372,1.679c-0.418,0.149 -0.702,0.359 -0.848,0.63c-0.147,0.272 -0.176,0.646 -0.093,1.122c0.087,0.492 0.256,0.858 0.507,1.102c0.161,0.155 0.349,0.214 0.567,0.176c0.198,-0.036 0.353,-0.149 0.464,-0.341c0.143,-0.246 0.238,-0.797 0.287,-1.655c0.048,-0.856 0.143,-1.5 0.279,-1.932c0.139,-0.43 0.369,-0.789 0.69,-1.076c0.321,-0.285 0.745,-0.476 1.276,-0.569c0.48,-0.085 0.953,-0.032 1.419,0.162c0.466,0.192 0.844,0.513 1.134,0.965c0.289,0.452 0.499,1.042 0.628,1.77c0.186,1.06 0.085,1.917 -0.305,2.571c-0.388,0.654 -1.042,1.12 -1.96,1.395" style="fill:#1d1d1b;fill-rule:nonzero;"/><path d="M49.678,110.879l-8.508,0.149l-0.03,-1.718l3.779,-0.065l-3.839,-3.405l-0.042,-2.309l3.371,3.145l5.135,-3.468l0.038,2.222l-3.952,2.41l1.447,1.368l2.571,-0.046l0.03,1.718Z" style="fill:#1d1d1b;fill-rule:nonzero;"/><path d="M50.767,94.096l-3.516,-0.682l-5.432,2.119l0.384,-1.978l3.686,-1.322l-2.929,-2.57l0.377,-1.942l4.253,4.013l3.504,0.682l-0.327,1.681Zm-8.875,-1.494l-1.55,-1.118l0.349,-1.796l1.399,1.899l-0.198,1.015Z" style="fill:#1d1d1b;fill-rule:nonzero;"/><path d="M51.897,78.219l0.559,-1.583c0.553,0.145 1.013,0.135 1.381,-0.034c0.369,-0.167 0.662,-0.488 0.884,-0.961c0.234,-0.501 0.303,-0.929 0.21,-1.282c-0.093,-0.353 -0.284,-0.597 -0.567,-0.729c-0.182,-0.083 -0.363,-0.103 -0.541,-0.056c-0.178,0.048 -0.377,0.182 -0.595,0.404c-0.149,0.153 -0.454,0.517 -0.92,1.09c-0.595,0.739 -1.124,1.205 -1.582,1.401c-0.646,0.275 -1.272,0.271 -1.883,-0.014c-0.392,-0.182 -0.71,-0.466 -0.947,-0.848c-0.238,-0.381 -0.349,-0.824 -0.333,-1.326c0.018,-0.503 0.165,-1.05 0.44,-1.643c0.452,-0.969 1.005,-1.597 1.657,-1.891c0.652,-0.291 1.338,-0.283 2.059,0.022l-0.658,1.59c-0.428,-0.117 -0.779,-0.107 -1.056,0.032c-0.275,0.137 -0.515,0.426 -0.719,0.864c-0.212,0.452 -0.283,0.85 -0.216,1.193c0.042,0.22 0.163,0.377 0.363,0.47c0.182,0.085 0.375,0.081 0.577,-0.012c0.256,-0.121 0.65,-0.517 1.183,-1.191c0.531,-0.674 0.977,-1.149 1.338,-1.423c0.361,-0.274 0.755,-0.436 1.181,-0.486c0.428,-0.051 0.886,0.038 1.373,0.264c0.442,0.206 0.799,0.523 1.07,0.947c0.27,0.426 0.394,0.908 0.373,1.443c-0.02,0.537 -0.188,1.141 -0.499,1.811c-0.456,0.975 -1.031,1.617 -1.724,1.93c-0.696,0.313 -1.496,0.319 -2.408,0.018" style="fill:#1d1d1b;fill-rule:nonzero;"/><path d="M62.008,64.627l-8.794,-2.083l1.015,-1.564l6.455,1.625l-4.146,-5.179l0.993,-1.528l5.476,7.19l-0.999,1.538Z" style="fill:#1d1d1b;fill-rule:nonzero;"/><path d="M73.794,50.33l-1.298,1.344l-1.907,-0.809l-2.365,2.448l0.904,1.847l-1.266,1.312l-3.819,-8.296l1.262,-1.306l8.489,3.46Zm-4.62,-0.063l-3.086,-1.35l1.473,3.021l1.613,-1.671Z" style="fill:#1d1d1b;fill-rule:nonzero;"/><path d="M78.435,46.166l-0.955,-1.221l0.125,-7.101l-3.123,2.442l-0.888,-1.134l4.909,-3.835l0.821,1.052l-0.139,7.393l3.815,-2.981l0.882,1.13l-5.446,4.255Z" style="fill:#1d1d1b;fill-rule:nonzero;"/><path d="M95.193,35.719l-2.874,-6.457l-2.307,1.027l-0.585,-1.314l6.176,-2.751l0.587,1.314l-2.301,1.025l2.874,6.459l-1.57,0.698Z" style="fill:#1d1d1b;fill-rule:nonzero;"/><path d="M112.38,29.884l-1.805,0.484l-1.219,-1.675l-3.286,0.88l-0.178,2.049l-1.76,0.472l0.999,-9.077l1.756,-0.472l5.494,7.339Zm-3.928,-2.434l-1.95,-2.747l-0.293,3.347l2.244,-0.6Z" style="fill:#1d1d1b;fill-rule:nonzero;"/><path d="M119.288,28.822l-0.592,-8.488l1.667,-0.117l3.871,5.426l-0.397,-5.668l1.592,-0.111l0.595,8.487l-1.72,0.121l-3.809,-5.296l0.386,5.535l-1.592,0.111Z" style="fill:#1d1d1b;fill-rule:nonzero;"/><path d="M133.9,28.513l1.037,-8.445l6.263,0.769l-0.176,1.429l-4.556,-0.561l-0.23,1.873l4.241,0.521l-0.176,1.423l-4.239,-0.521l-0.281,2.299l4.717,0.579l-0.174,1.423l-6.423,-0.789Z" style="fill:#1d1d1b;fill-rule:nonzero;"/><path d="M153.805,29.159l1.473,0.941c-0.488,0.831 -1.076,1.388 -1.766,1.669c-0.692,0.283 -1.478,0.305 -2.36,0.069c-1.09,-0.293 -1.889,-0.906 -2.39,-1.841c-0.504,-0.933 -0.583,-2.047 -0.236,-3.34c0.367,-1.369 1.005,-2.337 1.915,-2.903c0.91,-0.569 1.94,-0.698 3.09,-0.391c1.007,0.27 1.744,0.787 2.212,1.548c0.279,0.452 0.426,1.032 0.436,1.74l-1.748,-0.048c0.018,-0.452 -0.095,-0.842 -0.339,-1.173c-0.242,-0.329 -0.583,-0.553 -1.024,-0.67c-0.609,-0.165 -1.161,-0.077 -1.659,0.258c-0.495,0.337 -0.876,0.993 -1.138,1.974c-0.279,1.039 -0.289,1.829 -0.034,2.37c0.254,0.541 0.682,0.892 1.28,1.052c0.44,0.117 0.858,0.079 1.251,-0.117c0.392,-0.194 0.739,-0.575 1.038,-1.14Zm-1.792,-8.364l1.272,0.341l0.381,0.999l0.876,-0.662l1.266,0.339l-1.603,1.344l-1.459,-0.391l-0.733,-1.97Z" style="fill:#1d1d1b;fill-rule:nonzero;"/><path d="M161.488,35.705l3.863,-7.581l1.488,0.759l0.523,6.643l2.58,-5.064l1.421,0.725l-3.863,7.581l-1.536,-0.783l-0.537,-6.501l-2.519,4.945l-1.421,-0.725Z" style="fill:#1d1d1b;fill-rule:nonzero;"/><path d="M173.979,43.024l4.879,-6.97l1.407,0.987l-4.88,6.968l-1.407,-0.985Zm4.998,-7.482l1.653,-0.963l1.496,1.049l-2.303,0.507l-0.846,-0.593Z" style="fill:#1d1d1b;fill-rule:nonzero;"/><path d="M181.278,48.98l5.805,-6.225l1.256,1.173l-2.285,2.45l2.464,2.295l2.283,-2.45l1.257,1.171l-5.803,6.225l-1.257,-1.173l2.537,-2.721l-2.461,-2.295l-2.539,2.721l-1.257,-1.171Z" style="fill:#1d1d1b;fill-rule:nonzero;"/><path d="M194.342,57.034c0.702,-0.509 1.366,-0.832 1.994,-0.967c0.464,-0.099 0.935,-0.113 1.409,-0.046c0.476,0.069 0.898,0.216 1.268,0.44c0.492,0.297 0.943,0.725 1.35,1.286c0.737,1.015 1.013,2.055 0.824,3.121c-0.186,1.066 -0.84,2.006 -1.96,2.82c-1.112,0.807 -2.202,1.138 -3.268,0.989c-1.066,-0.149 -1.968,-0.727 -2.701,-1.74c-0.745,-1.023 -1.025,-2.063 -0.838,-3.122c0.186,-1.058 0.826,-1.986 1.922,-2.783Zm1.088,1.399c-0.781,0.567 -1.241,1.175 -1.382,1.827c-0.141,0.654 -0.01,1.256 0.392,1.811c0.402,0.553 0.934,0.862 1.592,0.927c0.656,0.065 1.385,-0.19 2.182,-0.771c0.789,-0.573 1.252,-1.173 1.389,-1.802c0.137,-0.628 -0.002,-1.229 -0.418,-1.802c-0.416,-0.573 -0.949,-0.892 -1.597,-0.957c-0.646,-0.065 -1.368,0.19 -2.158,0.765" style="fill:#1d1d1b;fill-rule:nonzero;"/><path d="M203.133,74.86l0.777,1.489c-0.484,0.303 -0.789,0.648 -0.918,1.03c-0.129,0.385 -0.095,0.819 0.101,1.304c0.208,0.513 0.472,0.856 0.795,1.029c0.321,0.172 0.628,0.2 0.92,0.081c0.186,-0.075 0.323,-0.194 0.41,-0.357c0.085,-0.162 0.123,-0.398 0.109,-0.711c-0.01,-0.212 -0.067,-0.684 -0.171,-1.415c-0.133,-0.939 -0.115,-1.643 0.054,-2.113c0.24,-0.66 0.67,-1.116 1.294,-1.368c0.402,-0.162 0.825,-0.202 1.267,-0.115c0.442,0.087 0.842,0.307 1.197,0.662c0.357,0.355 0.658,0.836 0.904,1.443c0.398,0.991 0.484,1.823 0.252,2.499c-0.232,0.676 -0.706,1.173 -1.421,1.492l-0.714,-1.566c0.379,-0.232 0.61,-0.495 0.698,-0.793c0.087,-0.295 0.04,-0.668 -0.141,-1.116c-0.188,-0.464 -0.43,-0.787 -0.726,-0.973c-0.19,-0.119 -0.386,-0.137 -0.593,-0.056c-0.186,0.075 -0.313,0.22 -0.382,0.43c-0.087,0.27 -0.067,0.829 0.063,1.679c0.131,0.848 0.172,1.498 0.127,1.95c-0.046,0.45 -0.194,0.848 -0.45,1.195c-0.254,0.347 -0.63,0.622 -1.13,0.823c-0.452,0.182 -0.926,0.228 -1.423,0.137c-0.495,-0.091 -0.934,-0.329 -1.31,-0.71c-0.378,-0.382 -0.706,-0.916 -0.981,-1.601c-0.404,-0.999 -0.484,-1.857 -0.238,-2.578c0.246,-0.722 0.789,-1.312 1.629,-1.772" style="fill:#1d1d1b;fill-rule:nonzero;"/><path d="M205.033,89.546l8.356,-1.623l0.525,2.707c0.2,1.025 0.287,1.703 0.265,2.03c-0.034,0.503 -0.228,0.957 -0.585,1.362c-0.357,0.404 -0.868,0.672 -1.532,0.801c-0.513,0.101 -0.963,0.091 -1.35,-0.028c-0.385,-0.117 -0.706,-0.301 -0.961,-0.549c-0.254,-0.248 -0.444,-0.513 -0.565,-0.797c-0.159,-0.388 -0.311,-0.963 -0.46,-1.728l-0.214,-1.1l-3.151,0.614l-0.329,-1.689Zm7.27,0.339l-2.37,0.46l0.178,0.924c0.131,0.666 0.26,1.102 0.39,1.308c0.131,0.208 0.303,0.357 0.513,0.448c0.212,0.091 0.44,0.113 0.688,0.063c0.303,-0.057 0.537,-0.196 0.7,-0.412c0.162,-0.218 0.242,-0.468 0.238,-0.751c0,-0.208 -0.059,-0.616 -0.178,-1.225l-0.159,-0.815Z" style="fill:#1d1d1b;fill-rule:nonzero;"/><path d="M211.265,103.201c0.868,0.014 1.594,0.157 2.176,0.426c0.43,0.2 0.815,0.472 1.153,0.813c0.337,0.341 0.587,0.712 0.747,1.114c0.214,0.533 0.315,1.146 0.303,1.839c-0.022,1.253 -0.428,2.249 -1.219,2.989c-0.791,0.739 -1.879,1.096 -3.264,1.072c-1.373,-0.024 -2.442,-0.416 -3.203,-1.177c-0.763,-0.759 -1.134,-1.764 -1.112,-3.015c0.022,-1.264 0.426,-2.263 1.211,-2.997c0.785,-0.733 1.853,-1.088 3.207,-1.064Zm0.028,1.77c-0.963,-0.016 -1.697,0.194 -2.202,0.63c-0.505,0.436 -0.763,0.997 -0.775,1.681c-0.012,0.686 0.224,1.251 0.71,1.699c0.486,0.448 1.223,0.682 2.208,0.698c0.975,0.018 1.706,-0.184 2.194,-0.602c0.488,-0.42 0.737,-0.983 0.749,-1.691c0.012,-0.707 -0.22,-1.284 -0.698,-1.724c-0.478,-0.442 -1.207,-0.672 -2.186,-0.69" style="fill:#1d1d1b;fill-rule:nonzero;"/><path d="M206.165,118.69l8.38,1.477l-0.628,3.561c-0.157,0.896 -0.347,1.534 -0.569,1.912c-0.222,0.379 -0.547,0.658 -0.975,0.832c-0.428,0.176 -0.89,0.222 -1.385,0.133c-0.628,-0.109 -1.116,-0.387 -1.461,-0.829c-0.345,-0.442 -0.505,-1.041 -0.482,-1.794c-0.277,0.327 -0.565,0.589 -0.864,0.781c-0.297,0.194 -0.807,0.434 -1.53,0.723l-1.815,0.735l0.357,-2.023l2.039,-0.902c0.729,-0.319 1.191,-0.545 1.389,-0.674c0.198,-0.131 0.345,-0.28 0.438,-0.448c0.095,-0.168 0.177,-0.446 0.246,-0.834l0.06,-0.343l-3.498,-0.618l0.299,-1.691Zm4.537,2.545l-0.22,1.251c-0.143,0.813 -0.198,1.326 -0.164,1.54c0.032,0.214 0.123,0.392 0.269,0.537c0.149,0.143 0.347,0.238 0.598,0.281c0.282,0.05 0.523,0.014 0.723,-0.105c0.2,-0.121 0.347,-0.313 0.44,-0.579c0.044,-0.135 0.127,-0.545 0.248,-1.231l0.232,-1.32l-2.127,-0.375Z" style="fill:#1d1d1b;fill-rule:nonzero;"/><path d="M201.996,134.697l6.6,2.533l0.906,-2.357l1.344,0.515l-2.424,6.312l-1.344,-0.517l0.904,-2.351l-6.6,-2.533l0.614,-1.603Z" style="fill:#1d1d1b;fill-rule:nonzero;"/><path d="M204.516,149.582l-0.91,1.459l-3.908,-2.444c-0.62,-0.386 -1.034,-0.62 -1.241,-0.7c-0.335,-0.121 -0.664,-0.121 -0.989,0.002c-0.327,0.123 -0.616,0.388 -0.87,0.795c-0.26,0.414 -0.369,0.779 -0.331,1.094c0.038,0.315 0.167,0.571 0.387,0.767c0.218,0.198 0.614,0.474 1.185,0.831l3.992,2.495l-0.91,1.457l-3.791,-2.368c-0.866,-0.541 -1.453,-0.963 -1.762,-1.267c-0.309,-0.301 -0.519,-0.636 -0.634,-1.001c-0.113,-0.365 -0.133,-0.771 -0.057,-1.217c0.075,-0.446 0.291,-0.953 0.648,-1.524c0.432,-0.69 0.838,-1.163 1.219,-1.419c0.383,-0.258 0.765,-0.41 1.148,-0.458c0.384,-0.047 0.735,-0.016 1.056,0.091c0.472,0.164 1.112,0.497 1.92,1.003l3.849,2.404Z" style="fill:#1d1d1b;fill-rule:nonzero;"/><path d="M74.205,235.99l-1.631,0l0,-6.15c-0.597,0.559 -1.298,0.971 -2.107,1.237l0,-1.48c0.424,-0.139 0.888,-0.402 1.387,-0.791c0.499,-0.391 0.842,-0.844 1.027,-1.364l1.324,0l0,8.548Z" style="fill:#1d1d1b;fill-rule:nonzero;"/><path d="M81.303,234.022l1.579,-0.174c0.04,0.321 0.141,0.559 0.303,0.714c0.163,0.155 0.377,0.232 0.644,0.232c0.337,0 0.622,-0.155 0.858,-0.464c0.238,-0.309 0.388,-0.951 0.454,-1.928c-0.41,0.478 -0.924,0.716 -1.538,0.716c-0.67,0 -1.249,-0.26 -1.734,-0.775c-0.486,-0.517 -0.729,-1.189 -0.729,-2.018c0,-0.864 0.258,-1.56 0.771,-2.089c0.511,-0.527 1.165,-0.793 1.958,-0.793c0.864,0 1.572,0.335 2.127,1.003c0.553,0.668 0.83,1.766 0.83,3.294c0,1.558 -0.289,2.679 -0.866,3.369c-0.577,0.688 -1.328,1.033 -2.253,1.033c-0.666,0 -1.203,-0.176 -1.613,-0.531c-0.41,-0.355 -0.674,-0.884 -0.791,-1.587Zm3.694,-3.565c0,-0.527 -0.121,-0.936 -0.363,-1.225c-0.242,-0.291 -0.523,-0.436 -0.84,-0.436c-0.301,0 -0.553,0.119 -0.751,0.357c-0.2,0.238 -0.299,0.628 -0.299,1.171c0,0.549 0.109,0.953 0.325,1.209c0.216,0.258 0.487,0.387 0.813,0.387c0.313,0 0.579,-0.123 0.793,-0.371c0.216,-0.248 0.323,-0.612 0.323,-1.092" style="fill:#1d1d1b;fill-rule:nonzero;"/><path d="M98.018,234.474l0,1.516l-5.72,0c0.063,-0.573 0.248,-1.116 0.559,-1.629c0.309,-0.513 0.922,-1.193 1.833,-2.041c0.737,-0.684 1.187,-1.149 1.354,-1.393c0.224,-0.337 0.337,-0.67 0.337,-0.999c0,-0.363 -0.097,-0.642 -0.293,-0.838c-0.196,-0.196 -0.466,-0.293 -0.811,-0.293c-0.341,0 -0.61,0.103 -0.813,0.307c-0.2,0.206 -0.317,0.547 -0.349,1.023l-1.625,-0.163c0.097,-0.898 0.4,-1.542 0.912,-1.934c0.511,-0.39 1.15,-0.587 1.917,-0.587c0.84,0 1.5,0.228 1.98,0.68c0.48,0.454 0.719,1.017 0.719,1.69c0,0.383 -0.069,0.747 -0.206,1.094c-0.137,0.347 -0.355,0.71 -0.652,1.088c-0.198,0.252 -0.555,0.614 -1.068,1.086c-0.515,0.472 -0.842,0.787 -0.979,0.941c-0.137,0.154 -0.25,0.305 -0.335,0.452l3.24,0Z" style="fill:#1d1d1b;fill-rule:nonzero;"/><path d="M109.275,229.563l-1.579,0.174c-0.038,-0.325 -0.139,-0.565 -0.301,-0.721c-0.162,-0.155 -0.375,-0.232 -0.634,-0.232c-0.343,0 -0.634,0.155 -0.874,0.466c-0.238,0.309 -0.386,0.953 -0.45,1.932c0.408,-0.48 0.912,-0.72 1.516,-0.72c0.682,0 1.265,0.26 1.75,0.779c0.486,0.517 0.729,1.187 0.729,2.008c0,0.872 -0.256,1.57 -0.767,2.097c-0.509,0.525 -1.167,0.789 -1.968,0.789c-0.858,0 -1.566,-0.333 -2.119,-1.001c-0.553,-0.668 -0.83,-1.762 -0.83,-3.284c0,-1.56 0.287,-2.684 0.864,-3.373c0.577,-0.69 1.326,-1.035 2.248,-1.035c0.646,0 1.181,0.182 1.605,0.543c0.424,0.363 0.694,0.888 0.811,1.578Zm-3.698,3.56c0,0.529 0.121,0.939 0.365,1.227c0.244,0.289 0.523,0.434 0.836,0.434c0.303,0 0.553,-0.119 0.755,-0.355c0.202,-0.236 0.301,-0.624 0.301,-1.161c0,-0.553 -0.107,-0.959 -0.325,-1.217c-0.216,-0.258 -0.488,-0.386 -0.813,-0.386c-0.313,0 -0.579,0.123 -0.795,0.369c-0.218,0.246 -0.325,0.61 -0.325,1.09" style="fill:#1d1d1b;fill-rule:nonzero;"/><path d="M117.476,165.674c20.042,0 36.297,16.253 36.297,36.297c0,1.045 -0.045,2.079 -0.132,3.102l-6.557,0c0.106,-1.02 0.161,-2.054 0.161,-3.102c0,-16.438 -13.331,-29.768 -29.768,-29.768c-16.438,0 -29.768,13.33 -29.768,29.768c0,8.582 3.636,16.314 9.448,21.748l-8.738,0c-4.544,-6.062 -7.238,-13.591 -7.238,-21.748c0,-20.044 16.253,-36.297 36.297,-36.297" style="fill:#004996;"/><path d="M70.396,181.199l6.525,-6.368l0,48.887l-6.525,-0l0,-42.518Z" style="fill:#004996;"/><path d="M156.121,175.928l0,1.516l-5.72,0c0.063,-0.573 0.248,-1.116 0.559,-1.629c0.309,-0.513 0.922,-1.193 1.833,-2.041c0.737,-0.684 1.187,-1.149 1.354,-1.393c0.224,-0.337 0.337,-0.67 0.337,-0.999c0,-0.363 -0.097,-0.642 -0.293,-0.838c-0.196,-0.196 -0.466,-0.293 -0.811,-0.293c-0.341,0 -0.61,0.103 -0.813,0.307c-0.2,0.206 -0.317,0.547 -0.349,1.023l-1.625,-0.163c0.097,-0.898 0.4,-1.542 0.912,-1.934c0.511,-0.39 1.15,-0.587 1.917,-0.587c0.84,0 1.5,0.228 1.98,0.68c0.48,0.454 0.719,1.017 0.719,1.69c0,0.383 -0.069,0.747 -0.206,1.094c-0.137,0.347 -0.355,0.71 -0.652,1.088c-0.198,0.252 -0.555,0.614 -1.068,1.086c-0.515,0.472 -0.842,0.787 -0.979,0.941c-0.137,0.154 -0.25,0.305 -0.335,0.452l3.24,0Z" style="fill:#1d1d1b;fill-rule:nonzero;"/><path d="M164.607,168.897c0.826,0 1.471,0.295 1.934,0.884c0.553,0.696 0.83,1.851 0.83,3.466c0,1.609 -0.279,2.767 -0.836,3.472c-0.46,0.581 -1.102,0.87 -1.928,0.87c-0.826,0 -1.494,-0.317 -2.002,-0.955c-0.507,-0.636 -0.761,-1.772 -0.761,-3.405c0,-1.603 0.279,-2.757 0.836,-3.46c0.46,-0.581 1.102,-0.872 1.926,-0.872Zm0,1.354c-0.196,0 -0.373,0.063 -0.527,0.188c-0.154,0.127 -0.275,0.353 -0.361,0.678c-0.111,0.422 -0.168,1.132 -0.168,2.131c0,0.999 0.052,1.685 0.151,2.057c0.101,0.375 0.228,0.622 0.381,0.747c0.155,0.123 0.329,0.186 0.525,0.186c0.198,0 0.375,-0.063 0.529,-0.19c0.155,-0.125 0.275,-0.351 0.361,-0.676c0.111,-0.418 0.168,-1.126 0.168,-2.125c0,-0.999 -0.051,-1.685 -0.151,-2.059c-0.101,-0.373 -0.228,-0.622 -0.381,-0.749c-0.155,-0.125 -0.329,-0.188 -0.527,-0.188" style="fill:#1d1d1b;fill-rule:nonzero;"/><path d="M178.599,175.928l0,1.516l-5.72,0c0.063,-0.573 0.248,-1.116 0.559,-1.629c0.309,-0.513 0.922,-1.193 1.833,-2.041c0.737,-0.684 1.187,-1.149 1.354,-1.393c0.224,-0.337 0.337,-0.67 0.337,-0.999c0,-0.363 -0.097,-0.642 -0.293,-0.838c-0.196,-0.196 -0.466,-0.293 -0.811,-0.293c-0.341,0 -0.61,0.103 -0.813,0.307c-0.2,0.206 -0.317,0.547 -0.349,1.023l-1.625,-0.163c0.097,-0.898 0.4,-1.542 0.912,-1.934c0.511,-0.39 1.15,-0.587 1.917,-0.587c0.84,0 1.5,0.228 1.98,0.68c0.48,0.454 0.72,1.017 0.72,1.69c0,0.383 -0.069,0.747 -0.206,1.094c-0.137,0.347 -0.355,0.71 -0.652,1.088c-0.198,0.252 -0.555,0.614 -1.068,1.086c-0.515,0.472 -0.842,0.787 -0.979,0.941c-0.137,0.154 -0.25,0.305 -0.335,0.452l3.24,0Z" style="fill:#1d1d1b;fill-rule:nonzero;"/><path d="M189.856,171.017l-1.579,0.174c-0.038,-0.325 -0.139,-0.565 -0.301,-0.721c-0.162,-0.155 -0.375,-0.232 -0.634,-0.232c-0.343,0 -0.634,0.155 -0.874,0.466c-0.238,0.309 -0.386,0.953 -0.45,1.932c0.408,-0.48 0.912,-0.72 1.516,-0.72c0.682,0 1.264,0.26 1.75,0.779c0.486,0.517 0.729,1.187 0.729,2.008c0,0.872 -0.256,1.57 -0.767,2.097c-0.509,0.525 -1.167,0.789 -1.968,0.789c-0.858,0 -1.566,-0.333 -2.119,-1.001c-0.553,-0.668 -0.83,-1.762 -0.83,-3.284c0,-1.56 0.287,-2.684 0.864,-3.373c0.577,-0.69 1.326,-1.035 2.248,-1.035c0.646,0 1.181,0.182 1.605,0.543c0.424,0.363 0.694,0.888 0.811,1.578Zm-3.698,3.56c0,0.529 0.121,0.939 0.365,1.227c0.244,0.289 0.523,0.434 0.836,0.434c0.303,0 0.553,-0.119 0.755,-0.355c0.202,-0.236 0.301,-0.624 0.301,-1.161c0,-0.553 -0.107,-0.959 -0.325,-1.217c-0.216,-0.258 -0.488,-0.386 -0.813,-0.386c-0.313,0 -0.579,0.123 -0.795,0.369c-0.218,0.246 -0.325,0.61 -0.325,1.09" style="fill:#1d1d1b;fill-rule:nonzero;"/></svg>