<?xml version="1.0" encoding="UTF-8" standalone="no"?>
<svg
  width="100%"
  height="100%"
  viewBox="0 0 376 343"
  version="1.1"
  xmlns="http://www.w3.org/2000/svg"
  xml:space="preserve"
  style="fill-rule:evenodd;clip-rule:evenodd;stroke-linejoin:round;stroke-miterlimit:2;"
>
  <path
    d="M182.243,169.345c0.395,-29.668 12.262,-32.833 -5.538,-44.502c39.16,-1.384 20.372,23.338 21.756,44.502c9.889,78.32 79.705,127.171 79.705,127.171c-43.113,-24.722 -94.341,-81.486 -95.923,-127.171Zm-27.887,122.422c-20.57,-49.245 7.911,-71.396 9.889,-106.404c10.087,32.041 -13.647,49.248 22.744,100.474c-10.877,0.989 -20.766,1.777 -32.633,5.93Zm-34.019,15.034c-13.497,-53.812 22.596,-84.974 28.958,-91.919c0.563,-0.924 0.907,-1.434 0.907,-1.434c0.161,0.162 -0.184,0.643 -0.907,1.434c-4.467,7.319 -23.577,42.21 -9.177,82.426c-7.123,2.175 -11.672,4.153 -19.781,9.493Zm-22.152,-190.858c-0,-0 45.293,-0 76.739,67.641c-47.068,-60.916 -66.849,-35.799 -76.739,-67.641Zm9.89,-49.843c6.131,-3.557 16.614,2.574 23.14,14.045c6.724,11.274 6.922,23.535 0.992,27.093c-6.332,3.562 -16.613,-2.766 -23.341,-14.04c-6.724,-11.273 -6.923,-23.535 -0.791,-27.098Zm169.695,14.836c-21.361,50.237 -82.87,26.107 -128.161,44.303c31.051,-38.369 90.583,-14.636 128.161,-44.303Zm-64.674,73.377c1.388,-12.263 4.351,-23.932 9.497,-28.876c0.194,0.393 29.268,-6.329 29.861,-6.329c-38.023,53.563 16.26,122.185 56.702,168.218c22.493,-26.909 36.037,-61.556 36.037,-99.369c-0,-73.45 -51.075,-134.966 -119.645,-150.98c4.183,5.493 5.303,15.813 2.183,26.357c-4.153,14.24 -14.239,23.734 -22.348,21.358c-8.109,-2.372 -11.468,-15.82 -7.315,-29.863c2.815,-9.656 8.358,-17.213 14.163,-20.344c-7.213,-1.028 -14.584,-1.572 -22.082,-1.572c-85.628,-0 -155.043,69.415 -155.043,155.044c-0,48.932 22.675,92.562 58.084,120.977c-1.119,-35.554 26.116,-60.268 27.484,-61.784c-1.214,1.629 -23.612,32.375 -14.181,68.749l0.951,3.213c23.937,15.126 52.297,23.888 82.705,23.888c39.073,-0 74.764,-14.458 102.03,-38.31c-34.884,-34.49 -85.558,-94.462 -79.083,-150.377Z"
    style="fill:#004c9c;fill-rule:nonzero;"
  />
</svg>
